<?xml version="1.0" encoding="utf-8"?>
<!-- Generator: Adobe Illustrator 18.0.0, SVG Export Plug-In . SVG Version: 6.00 Build 0)  -->
<!DOCTYPE svg PUBLIC "-//W3C//DTD SVG 1.1//EN" "http://www.w3.org/Graphics/SVG/1.1/DTD/svg11.dtd">
<svg version="1.1" xmlns="http://www.w3.org/2000/svg" xmlns:xlink="http://www.w3.org/1999/xlink" x="0px" y="0px"
	 viewBox="0 0 315.5 317.5" enable-background="new 0 0 315.5 317.5" xml:space="preserve">
<g id="Layer_1">
	<g>
		<circle fill="#B8E5FA" cx="155.8" cy="153.8" r="149.5"/>
		<polygon fill="#76B243" points="218.2,283.5 238.5,272.4 238.5,274.8 223.3,283.5 		"/>
		<polygon fill="#76B243" points="239.5,271.6 239.5,273.2 250.5,266.5 250.5,264.3 252.5,260.2 252.5,258.6 		"/>
		<polygon fill="#76B243" points="188.5,262.8 190.9,266.5 194.6,266.5 196.4,273.5 206.7,273.5 228.4,260.4 240.3,233.3 
			237.4,208.1 223.7,226.5 215.8,221.6 218.2,213.4 211,211.5 197.4,220 185.9,219.6 174.4,230.1 149.9,238.2 148.9,265.9 		"/>
		<polygon fill="#76B243" points="214.6,184.8 218.5,186.5 218.5,190.7 229.5,194.6 229.5,199.6 238.5,202.9 243.9,198.2 248.5,200 
			248.5,204.5 255.5,205.7 253,189.1 233.1,181.8 223.6,187 222.1,181.5 215.6,181.5 		"/>
		<polygon fill="#76B243" points="133.9,197.8 141.4,195.7 148.5,199.1 160.5,201.2 160.5,206.1 140.8,201.8 		"/>
		<polygon fill="#76B243" points="134,194.5 137.2,194.5 139.2,188.2 130.5,176.2 115.8,165.9 107.9,163.3 119,176.8 127.3,190.8 		
			"/>
		<polygon fill="#76B243" points="148.9,176.1 152.4,188.7 166.2,190.5 171.5,187.3 171.5,183.5 179.4,172.5 176.8,172.5 
			179.4,167.7 177.4,162 154.8,176.3 		"/>
		<polygon fill="#76B243" points="183.9,176.7 177.5,186.5 177.5,194.8 180.5,196.6 180.5,190.7 184,194.4 189.3,192.1 188.4,185.7 
			192.3,182.6 184.5,182.8 184.5,181 199.5,177.8 199.5,176.2 		"/>
		<polygon fill="#76B243" points="205.5,174 203.5,182 205.5,183.9 209.5,176.2 		"/>
		<polygon fill="#76B243" points="190.9,157.7 198,154.5 200.5,154.5 200.5,152.5 205.1,152.5 203.3,163.3 197.5,161.8 197.5,159.2 
			192.6,159.9 		"/>
		<path fill="#76B243" d="M8.4,165.3l2.4-9.5l1.3-0.6l6.1-22l-7.3-0.2l5.3-29.5l-2.6,26.5l12.5-5.9l8.1-11.5l-1.8-11.9l-4.6,3.4
			l1-12.9l1.4-5.3l0.2,11.5l4,0.6l1.2,5.5l10.3,1.6l4,6.9l4.8,5.9l2.6-3.4l-1.8,11.9l4.2,25.1l7.5-3.8l3.4-13.3l24.5-16.4l9.1-1
			l1.2,5.5l6.1,8.1l-3,2.2l4,2.6l6.3-2l2.8,10.1l-2.4,12.5l7.1,15.2l9.1,3l-0.4-8.7l-8.7-7l1-16l11.7,14.5l13.1-6.1l3.4-15.2
			l-8.9-8.7l3.4-7.1l5.1,0.2l1.2,2.6l23.6-9.7l10.9-18.8l-7.5-13.9l2.6-4.2l-3.4-1.8l-3,0.8l-1.7-3l5.6-4.8v3.2l8.4-0.2l5.9,10.7
			l6.7-2l-4.8-10.5l3.4-8.3l3.6,1.2l2.2-15l-6.9-9.7l-10.9-1.2l2-8.3l11.5-0.4l-2.4-5.5l5.9,1.6l4.4,7.5l13.3,7.3l-9.1-11.9
			l-3.6-2.2L214,22l-3-5.1l-7.7-2.8l0.6-1.8l-4.2-1.2l-28.9-0.4l-6.1-1l-0.2,2l-5.5,0.2l-4.6-2.2l-8.5,0.6l-0.4-2l-15,1.2l-8.5,4.4
			l-4-1.4l-7.9,3.4l-13.1,1l-0.8-0.4C43.3,39.6,5.9,92.4,5.9,153.8c0,15.7,2.6,30.7,6.6,44.9v-6.3L8.4,165.3z"/>
		<polygon fill="#76B243" points="185.6,138.3 189.5,126.5 193.8,126.5 194.6,133.6 192.6,134.2 193,137.8 197.5,139.4 197.5,142.2 
					"/>
		<polygon fill="#76B243" points="207.7,83.1 213.5,84 213.5,89.7 209.7,90.3 209.9,86.7 		"/>
		<polygon fill="#76B243" points="211.4,79.6 214.6,76.6 219,76.2 222.9,67.5 221.3,64.4 226.1,62.8 228.7,68.1 229.5,78 222.5,80 
			221.5,84.2 217.6,79.8 212.2,81.4 		"/>
		<polygon fill="#76B243" points="204.9,37.2 216.8,51.3 218.8,49.7 215.2,45.6 216.8,44.8 206.7,37 		"/>
		<polygon fill="#76B243" points="219.6,53.1 218,54.3 219.8,57.4 217.6,59.6 221.9,62.2 222.7,59.8 225.1,60.8 229.5,53.1 
			223.1,54.9 		"/>
		<polygon fill="#76B243" points="65.9,150.5 69.5,149.1 73.5,157.2 67.5,159.6 		"/>
		<polygon fill="#76B243" points="16.4,192.5 18.6,212.1 24.4,220.6 20.6,197.2 		"/>
		<polygon fill="#76B243" points="176.4,155.4 184.7,147.5 186.9,148.9 179.2,157.2 		"/>
		<polygon fill="#76B243" points="187.5,206.7 199.2,202.7 200,204.1 186.9,208.9 		"/>
		<polygon fill="#76B243" points="193,146.5 192.2,150.5 195.4,150.1 195.8,147.3 		"/>
		<radialGradient id="SVGID_1_" cx="135.0473" cy="161.3744" r="135.5068" gradientUnits="userSpaceOnUse">
			<stop  offset="0" style="stop-color:#DEDEDE;stop-opacity:0.3"/>
			<stop  offset="0.2932" style="stop-color:#DADADA;stop-opacity:0.388"/>
			<stop  offset="0.5618" style="stop-color:#CFCFCF;stop-opacity:0.4685"/>
			<stop  offset="0.8199" style="stop-color:#BDBDBD;stop-opacity:0.546"/>
			<stop  offset="1" style="stop-color:#ABABAB;stop-opacity:0.6"/>
		</radialGradient>
		<path opacity="0.5" fill="url(#SVGID_1_)" d="M198,272.4c-82.6,0-149.5-66.9-149.5-149.5c0-40.1,15.8-76.5,41.5-103.4
			C40.4,43.8,6.3,94.8,6.3,153.8c0,82.6,66.9,149.5,149.5,149.5c42.5,0,80.8-17.7,108-46.2C244,266.9,221.6,272.4,198,272.4z"/>
	</g>
	<g>
		<g>
			<path fill="#8F8F8F" d="M277.3,289.2c0-6,2.5-11.4,6.5-15.3c-7.9,3.1-13.5,10.8-13.5,19.8c0,11.8,9.5,21.3,21.3,21.3
				c5.8,0,11-2.3,14.8-6c-2.4,1-5.1,1.5-7.8,1.5C286.8,310.5,277.3,300.9,277.3,289.2z"/>
		</g>
		<g>
			<path fill="#A8A8A8" d="M312.9,293.7c0-11.8-9.5-21.3-21.3-21.3c-2.8,0-5.4,0.5-7.8,1.5c-4,3.9-6.5,9.3-6.5,15.3
				c0,11.8,9.5,21.3,21.3,21.3c2.8,0,5.4-0.5,7.8-1.5C310.4,305.1,312.9,299.7,312.9,293.7z"/>
		</g>
		<g>
			
				<ellipse transform="matrix(0.5995 0.8004 -0.8004 0.5995 339.5537 -117.115)" fill="#999B9E" cx="286.8" cy="280.7" rx="5.2" ry="6.8"/>
		</g>
		<g>
			
				<rect x="270.3" y="293.1" transform="matrix(0.9304 0.3666 -0.3666 0.9304 127.9247 -86.4586)" fill="#999B9E" width="42.6" height="1.1"/>
		</g>
	</g>
</g>
<g id="Layer_2">
</g>
</svg>
