<?xml version="1.0" encoding="utf-8"?>
<!-- Generator: Adobe Illustrator 18.0.0, SVG Export Plug-In . SVG Version: 6.00 Build 0)  -->
<!DOCTYPE svg PUBLIC "-//W3C//DTD SVG 1.1//EN" "http://www.w3.org/Graphics/SVG/1.1/DTD/svg11.dtd">
<svg version="1.1" xmlns="http://www.w3.org/2000/svg" xmlns:xlink="http://www.w3.org/1999/xlink" x="0px" y="0px"
	 viewBox="0 0 431 333" enable-background="new 0 0 431 333" xml:space="preserve">
<g id="Layer_1">
	<g>
		<polygon fill="#00A9AD" points="-24.5,217.6 10.8,217.6 -7,176.5 		"/>
		<polygon fill="#20B798" points="-24.5,217.6 2.7,242.1 10.8,217.6 		"/>
		<polygon fill="#009C9F" points="10.8,217.6 32.9,222.1 2.7,242.1 		"/>
		<polygon fill="#00B5A7" points="44.2,253.7 69,236.3 51.2,228.3 		"/>
		<polygon fill="#00A699" points="2.7,242.1 44.2,253.7 32.9,222.1 		"/>
		<polygon fill="#00ADA8" points="32.9,222.1 42.3,209.5 51.2,228.3 44.2,253.7 		"/>
		<polygon fill="#00B6A0" points="42.3,209.5 72.9,214.9 51.2,228.3 		"/>
		<polygon fill="#20B798" points="42.3,209.5 26,209.5 32.9,222.1 		"/>
		<polygon fill="#00A9AD" points="26,209.5 10.8,217.6 32.9,222.1 		"/>
		<polygon fill="#00A1A5" points="26,209.5 34.1,187.3 10.8,217.6 		"/>
		<polygon fill="#00B4AF" points="-7,176.5 34.1,187.3 10.8,217.6 		"/>
		<polygon fill="#00B1C7" points="-7,176.5 32.9,162.6 34.1,187.3 		"/>
		<polygon fill="#00A3B7" points="-7,176.5 13.5,142.7 32.9,162.6 		"/>
		<polygon fill="#00B1C7" points="-7,176.5 -17.5,145.8 13.5,142.7 		"/>
		<polygon fill="#0099AB" points="-28,74.4 26,111.7 -6.8,132.8 		"/>
		<polygon fill="#00AFD5" points="-6.8,132.8 13.5,142.7 -17.5,145.8 		"/>
		<polygon fill="#009EB1" points="-6.8,132.8 26,111.7 13.5,142.7 		"/>
		<polygon fill="#00AFD5" points="-28,74.4 36.4,74.4 26,111.7 		"/>
		<polygon fill="#00A2B6" points="26,111.7 30.2,125.4 13.5,142.7 		"/>
		<polygon fill="#009DB0" points="30.2,125.4 38.8,128.7 13.5,142.7 		"/>
		<polygon fill="#00B1C7" points="38.8,128.7 32.9,162.6 13.5,142.7 		"/>
		<polygon fill="#00AB9E" points="32.9,162.6 47.7,191 34.1,187.3 		"/>
		<polygon fill="#00B3B7" points="38.8,128.7 69,157.9 32.9,162.6 		"/>
		<polygon fill="#00ADB1" points="47.7,191 42.3,209.5 34.1,187.3 		"/>
		<polygon fill="#00B1A3" points="34.1,187.3 42.3,209.5 26,209.5 		"/>
		<polygon fill="#00B5A7" points="47.7,191 69,157.9 32.9,162.6 		"/>
		<polygon fill="#45BA88" points="69,157.9 86.9,201.3 47.7,191 		"/>
		<polygon fill="#37B890" points="47.7,191 86.9,201.3 72.9,214.9 		"/>
		<polygon fill="#00B5A7" points="72.9,214.9 47.7,191 42.3,209.5 		"/>
		<polygon fill="#45BA88" points="72.9,214.9 69,236.3 51.2,228.3 		"/>
		<polygon fill="#58B574" points="69,236.3 97.4,261.1 72.9,214.9 		"/>
		<polygon fill="#5CBC79" points="72.9,214.9 86.9,201.3 97.4,261.1 		"/>
		<polygon fill="#5EB067" points="86.9,201.3 134.2,244.4 97.4,261.1 		"/>
		<polygon fill="#40AD80" points="97.4,261.1 72.9,279.3 69,236.3 		"/>
		<polygon fill="#20B798" points="72.9,279.3 95.4,287.1 97.4,261.1 		"/>
		<polygon fill="#00A89C" points="97.4,261.1 95.4,287.1 114.4,308.8 		"/>
		<polygon fill="#34B08A" points="97.4,261.1 148.2,292 114.4,308.8 		"/>
		<polygon fill="#5CBC79" points="134.2,244.4 97.4,261.1 148.2,292 		"/>
		<polygon fill="#77C05B" points="134.2,244.4 157.1,257.8 148.2,292 		"/>
		<polygon fill="#6FBF65" points="157.1,257.8 196.3,270.8 148.2,292 		"/>
		<polygon fill="#00A0B3" points="36.4,74.4 47.7,99.2 26,111.7 		"/>
		<polygon fill="#0097AA" points="47.7,99.2 30.2,125.4 26,111.7 		"/>
		<polygon fill="#00B2BF" points="47.7,99.2 38.8,128.7 30.2,125.4 		"/>
		<polygon fill="#00A7A3" points="47.7,99.2 69,157.9 38.8,128.7 		"/>
		<polygon fill="#00AABF" points="36.4,74.4 76.8,89.2 47.7,99.2 		"/>
		<polygon fill="#008B9C" points="36.4,74.4 72.9,25.1 76.8,89.2 		"/>
		<polygon fill="#009DB0" points="72.9,25.1 91.5,72.1 76.8,89.2 		"/>
		<polygon fill="#00B1C7" points="72.9,25.1 122.8,63.9 91.5,72.1 		"/>
		<polygon fill="#00A7A3" points="91.5,72.1 104.9,112.3 76.8,89.2 		"/>
		<polygon fill="#00AEAA" points="47.7,99.2 76.8,89.2 69,157.9 		"/>
		<polygon fill="#00B4AF" points="76.8,89.2 104.9,112.3 69,157.9 		"/>
		<polygon fill="#00AEAA" points="104.9,112.3 102.4,153 69,157.9 		"/>
		<polygon fill="#37B890" points="102.4,153 90.9,170.3 69,157.9 		"/>
		<polygon fill="#5CBC79" points="90.9,170.3 86.9,201.3 69,157.9 		"/>
		<polygon fill="#1EAF91" points="90.9,170.3 118.3,170.3 102.4,153 		"/>
		<polygon fill="#20B798" points="90.9,170.3 118.3,170.3 86.9,201.3 		"/>
		<polygon fill="#20B798" points="104.9,112.3 134.2,142.7 102.4,153 		"/>
		<polygon fill="#00B5A7" points="104.9,112.3 122.8,63.9 91.5,72.1 		"/>
		<polygon fill="#5CBC79" points="118.3,170.3 139.3,185.8 86.9,201.3 		"/>
		<polygon fill="#7BB642" points="86.9,201.3 148.2,209.5 139.3,185.8 		"/>
		<polygon fill="#73AB3E" points="148.2,209.5 134.2,244.4 86.9,201.3 		"/>
		<polygon fill="#7BB642" points="148.2,209.5 157.1,257.8 134.2,244.4 		"/>
		<polygon fill="#85BD3C" points="148.2,209.5 172.3,203 157.1,257.8 		"/>
		<polygon fill="#7BB642" points="172.3,203 196.3,270.8 157.1,257.8 		"/>
		<polygon fill="#8BC53F" points="196.3,270.8 208,242.1 172.3,203 		"/>
		<polygon fill="#66BE6E" points="208,242.1 249.1,268.2 196.3,270.8 		"/>
		<polygon fill="#20B798" points="134.2,142.7 118.3,170.3 102.4,153 		"/>
		<polygon fill="#85BD3C" points="139.3,185.8 160.2,182.3 148.2,209.5 		"/>
		<polygon fill="#85C448" points="160.2,182.3 172.3,203 148.2,209.5 		"/>
		<path fill="#8BC53F" d="M160.2,182.3l-26-39.6c0,0,3.3,43.4,5,43.1S160.2,182.3,160.2,182.3z"/>
		<polygon fill="#33AD87" points="104.9,112.3 149.8,130.3 134.2,142.7 		"/>
		<polygon fill="#82B93B" points="149.8,130.3 160.2,182.3 134.2,142.7 		"/>
		<polygon fill="#85BD3C" points="149.8,130.3 181.6,157.9 160.2,182.3 		"/>
		<polygon fill="#7BB642" points="181.6,157.9 172.3,203 160.2,182.3 		"/>
		<polygon fill="#85C448" points="181.6,157.9 220.4,184.8 172.3,203 		"/>
		<polygon fill="#77C05B" points="172.3,203 220.4,184.8 208,242.1 		"/>
		<polygon fill="#7ABC4F" points="208,242.1 243.7,215.9 220.4,184.8 		"/>
		<polygon fill="#77C05B" points="249.1,268.2 243.7,215.9 208,242.1 		"/>
		<polygon fill="#34B08A" points="104.9,112.3 157.1,72.1 122.8,63.9 		"/>
		<polygon fill="#00988C" points="122.8,63.9 127.3,25.1 153.3,46.9 		"/>
		<polygon fill="#2FA481" points="127.3,25.1 170.9,11.9 153.3,46.9 		"/>
		<polygon fill="#37B890" points="170.9,11.9 165.7,46.9 153.3,46.9 		"/>
		<polygon fill="#00A699" points="153.3,46.9 157.1,72.1 122.8,63.9 		"/>
		<polygon fill="#00B6A0" points="165.7,46.9 157.1,72.1 153.3,46.9 		"/>
		<polygon fill="#5CBC79" points="170.9,11.9 208,40.6 165.7,46.9 		"/>
		<polygon fill="#49A975" points="165.7,46.9 217.3,101.2 157.1,72.1 		"/>
		<polygon fill="#30A682" points="157.1,72.1 149.8,130.3 104.9,112.3 		"/>
		<polygon fill="#33AE88" points="157.1,72.1 192.1,130.3 149.8,130.3 		"/>
		<polygon fill="#66BE6E" points="192.1,130.3 181.6,157.9 149.8,130.3 		"/>
		<polygon fill="#51BB80" points="157.1,72.1 217.3,101.2 192.1,130.3 		"/>
		<polygon fill="#4EB37C" points="165.7,46.9 208,40.6 217.3,101.2 		"/>
		<polygon fill="#60BF8B" points="208,40.6 243.7,81.4 217.3,101.2 		"/>
		<polygon fill="#34B18A" points="217.3,101.2 215.4,139.9 192.1,130.3 		"/>
		<polygon fill="#5CBC79" points="192.1,130.3 215.4,139.9 198.3,153 		"/>
		<polygon fill="#5AA962" points="192.1,130.3 198.3,153 181.6,157.9 		"/>
		<polygon fill="#6EB354" points="198.3,153 220.4,184.8 181.6,157.9 		"/>
		<polygon fill="#66BE6E" points="198.3,153 215.4,139.9 220.4,184.8 		"/>
		<polygon fill="#1CA68A" points="215.4,139.9 260.4,92.2 217.3,101.2 		"/>
		<polygon fill="#45BA88" points="243.7,81.4 260.4,92.2 217.3,101.2 		"/>
		<polygon fill="#33AE88" points="260.4,92.2 273.2,142.7 215.4,139.9 		"/>
		<polygon fill="#6FBF65" points="215.4,139.9 273.2,142.7 220.4,184.8 		"/>
		<polygon fill="#68B45F" points="220.4,184.8 273.2,142.7 241.4,201.3 		"/>
		<polygon fill="#63AD5B" points="241.4,201.3 273.2,211 273.2,142.7 		"/>
		<polygon fill="#77C05B" points="220.4,184.8 241.4,201.3 243.7,215.9 		"/>
		<polygon fill="#66B15E" points="241.4,201.3 273.2,211 243.7,215.9 		"/>
		<polygon fill="#57B473" points="273.2,211 286.8,236.3 326,193.8 		"/>
		<polygon fill="#37B890" points="273.2,142.7 318.6,81.4 260.4,92.2 		"/>
		<polygon fill="#4FB57D" points="318.6,81.4 326,125.4 273.2,142.7 		"/>
		<polygon fill="#66BE6E" points="273.2,142.7 326,193.8 273.2,211 		"/>
		<polygon fill="#4BAE78" points="273.2,142.7 326,125.4 326,193.8 		"/>
		<polygon fill="#66BE6E" points="318.6,81.4 336.4,93 326,125.4 		"/>
		<polygon fill="#37B890" points="336.4,93 386.5,103.6 326,125.4 		"/>
		<polygon fill="#37B890" points="326,125.4 367.5,145.7 326,193.8 		"/>
		<polygon fill="#51BB80" points="367.5,145.7 386.5,103.6 326,125.4 		"/>
		<polygon fill="#00B5A7" points="326,193.8 404.4,200.4 367.5,145.7 		"/>
		<polygon fill="#54AD6F" points="326,193.8 354.7,250.7 286.8,236.3 		"/>
		<polygon fill="#42B283" points="326,193.8 404.4,200.4 361.3,217.6 		"/>
		<polygon fill="#45BA88" points="361.3,217.6 354.7,250.7 326,193.8 		"/>
		<polygon fill="#1CA68A" points="354.7,250.7 376.8,270.8 361.3,217.6 		"/>
		<polygon fill="#00B5A7" points="361.3,217.6 391.9,244.2 376.8,270.8 		"/>
		<polygon fill="#009CC5" points="391.9,244.2 418.3,239 361.3,217.6 		"/>
		<polygon fill="#00B4AF" points="418.3,239 404.4,200.4 361.3,217.6 		"/>
		<polygon fill="#00AB96" points="42.3,209.5 32.9,222.1 51.2,228.3 		"/>
		<polygon fill="#6FBF65" points="134.2,142.7 139.3,185.8 118.3,170.3 		"/>
		<g>
			<polygon opacity="0.9" fill="#FFF100" points="130,157.6 210.9,110.9 130,64.2 49.1,110.9 49.1,110.9 49.1,110.9 			"/>
			<polygon opacity="0.9" fill="#FFDD00" points="210.9,110.9 130,157.6 130,251 210.9,204.3 			"/>
			<polygon opacity="0.9" fill="#FFCA05" points="49.1,110.9 49.1,110.9 49.1,204.3 130,251 130,157.6 			"/>
			<g>
				<g>
					<path fill="#58595B" d="M79.6,161.3c-0.3-0.4-0.8-0.7-1.3-0.9c-0.6-0.2-1.1-0.3-1.6-0.3c-0.3,0-0.6,0-0.9,0.1s-0.6,0.2-0.9,0.3
						c-0.3,0.1-0.5,0.3-0.7,0.6c-0.2,0.2-0.3,0.5-0.3,0.9c0,0.6,0.2,1,0.6,1.3c0.4,0.3,0.9,0.5,1.6,0.8c0.6,0.2,1.3,0.4,2,0.6
						c0.7,0.2,1.4,0.5,2,0.9s1.2,0.9,1.6,1.5c0.4,0.6,0.6,1.5,0.6,2.6c0,1-0.2,1.9-0.6,2.7c-0.4,0.8-0.9,1.4-1.6,1.9
						c-0.7,0.5-1.4,0.9-2.3,1.1s-1.8,0.4-2.7,0.4c-1.2,0-2.3-0.2-3.3-0.5c-1-0.4-2-1-2.9-1.8l2.9-3.2c0.4,0.6,0.9,1,1.6,1.3
						c0.6,0.3,1.3,0.5,2,0.5c0.3,0,0.7,0,1-0.1c0.3-0.1,0.6-0.2,0.9-0.4c0.3-0.2,0.5-0.4,0.7-0.6c0.2-0.2,0.2-0.5,0.2-0.9
						c0-0.6-0.2-1-0.6-1.3c-0.4-0.3-1-0.6-1.6-0.8c-0.6-0.2-1.3-0.5-2.1-0.7c-0.7-0.2-1.4-0.5-2.1-0.9c-0.6-0.4-1.2-0.9-1.6-1.5
						c-0.4-0.6-0.6-1.5-0.6-2.5c0-1,0.2-1.9,0.6-2.6c0.4-0.7,0.9-1.4,1.6-1.9c0.7-0.5,1.4-0.9,2.3-1.1c0.9-0.3,1.7-0.4,2.6-0.4
						c1,0,2.1,0.1,3,0.4s1.9,0.8,2.6,1.5L79.6,161.3z"/>
					<path fill="#58595B" d="M90,167.4L83,156.8h5.1l3.9,6.9l4.1-6.9h4.8L94,167.4v7.9H90V167.4z"/>
					<path fill="#58595B" d="M102.3,156.8h5.5l7.9,12.8h0.1v-12.8h4.1v18.5h-5.3l-8.1-13.1h-0.1v13.1h-4.1V156.8z"/>
					<path fill="#58595B" d="M123.7,156.8h12.5v3.8h-8.5v3.4h8v3.8h-8v3.8h8.9v3.8h-13V156.8z"/>
					<path fill="#58595B" d="M140,156.8h7.1c0.9,0,1.8,0.1,2.7,0.3s1.6,0.5,2.2,0.9c0.6,0.4,1.1,1,1.5,1.7c0.4,0.7,0.6,1.6,0.6,2.7
						c0,1.3-0.3,2.4-1,3.3s-1.7,1.5-3,1.7l4.7,7.8H150l-3.9-7.4h-2v7.4H140V156.8z M144.1,164.5h2.4c0.4,0,0.8,0,1.2,0
						c0.4,0,0.8-0.1,1.1-0.2c0.3-0.1,0.6-0.3,0.8-0.6c0.2-0.3,0.3-0.7,0.3-1.2c0-0.5-0.1-0.8-0.3-1.1s-0.4-0.5-0.7-0.6
						c-0.3-0.1-0.6-0.2-1-0.3c-0.4-0.1-0.8-0.1-1.1-0.1h-2.7V164.5z"/>
					<path fill="#58595B" d="M173.7,174c-1.2,0.6-2.5,1.1-3.8,1.4c-1.3,0.3-2.6,0.4-4,0.4c-1.4,0-2.8-0.2-4-0.7
						c-1.2-0.5-2.3-1.1-3.2-1.9c-0.9-0.8-1.6-1.9-2.1-3.1c-0.5-1.2-0.7-2.5-0.7-4c0-1.5,0.2-2.8,0.7-4c0.5-1.2,1.2-2.2,2.1-3.1
						c0.9-0.8,1.9-1.5,3.2-1.9c1.2-0.5,2.5-0.7,4-0.7c1.5,0,2.8,0.2,4.1,0.5c1.2,0.4,2.3,1,3.3,1.8l-2.9,3.1c-0.6-0.6-1.2-1-1.9-1.3
						c-0.7-0.3-1.6-0.4-2.6-0.4c-0.9,0-1.7,0.1-2.4,0.4c-0.7,0.3-1.3,0.7-1.8,1.2c-0.5,0.5-0.9,1.2-1.2,1.9
						c-0.3,0.7-0.4,1.5-0.4,2.4c0,0.9,0.1,1.7,0.4,2.4c0.3,0.7,0.7,1.3,1.2,1.9c0.5,0.5,1.1,0.9,1.8,1.2c0.7,0.3,1.5,0.4,2.4,0.4
						c0.9,0,1.7-0.1,2.3-0.3c0.6-0.2,1.2-0.4,1.5-0.6v-3h-3.3v-3.8h7.2V174z"/>
					<path fill="#58595B" d="M181.8,167.4l-6.9-10.6h5.1l3.9,6.9l4.1-6.9h4.8l-6.9,10.6v7.9h-4.1V167.4z"/>
				</g>
				<g>
					<path fill="#58595B" d="M117.1,177.9h-1.9l0.1-0.5h4.4l-0.1,0.5h-1.9l-0.7,5.2h-0.5L117.1,177.9z"/>
					<path fill="#58595B" d="M120.7,177.4h0.5l-0.3,2.5h3.2l0.3-2.5h0.5l-0.8,5.7h-0.5l0.4-2.7h-3.2l-0.4,2.7h-0.5L120.7,177.4z"/>
					<path fill="#58595B" d="M126.6,177.4h3.5l-0.1,0.5h-2.9l-0.3,2h2.8l-0.1,0.5h-2.8l-0.3,2.2h3.1l-0.1,0.5h-3.6L126.6,177.4z"/>
					<path fill="#58595B" d="M137.8,182.2c-0.3,0.4-0.7,0.6-1.1,0.8c-0.4,0.2-0.8,0.2-1.2,0.2c-0.4,0-0.8-0.1-1.2-0.2
						c-0.3-0.1-0.6-0.4-0.8-0.6c-0.2-0.3-0.4-0.6-0.5-0.9c-0.1-0.4-0.1-0.8,0-1.2c0.1-0.4,0.2-0.8,0.4-1.2c0.2-0.4,0.4-0.7,0.7-0.9
						c0.3-0.3,0.6-0.5,1-0.6c0.4-0.1,0.8-0.2,1.2-0.2c0.4,0,0.7,0.1,1,0.2c0.3,0.1,0.6,0.4,0.8,0.7l-0.5,0.4
						c-0.1-0.3-0.3-0.5-0.6-0.6c-0.3-0.1-0.5-0.2-0.8-0.2c-0.4,0-0.7,0.1-1,0.2c-0.3,0.1-0.6,0.3-0.8,0.5s-0.4,0.5-0.6,0.8
						s-0.3,0.6-0.3,1c0,0.4,0,0.7,0,1c0.1,0.3,0.2,0.6,0.4,0.8c0.2,0.2,0.4,0.4,0.7,0.5c0.3,0.1,0.6,0.2,1,0.2c0.1,0,0.3,0,0.5-0.1
						c0.2,0,0.3-0.1,0.5-0.2s0.3-0.2,0.5-0.3s0.3-0.2,0.4-0.4L137.8,182.2z"/>
					<path fill="#58595B" d="M138.9,180.3c0.1-0.4,0.2-0.8,0.4-1.2c0.2-0.4,0.4-0.7,0.7-0.9c0.3-0.3,0.6-0.5,1-0.6
						c0.4-0.1,0.8-0.2,1.2-0.2c0.4,0,0.8,0.1,1.2,0.2c0.3,0.2,0.6,0.4,0.8,0.6s0.4,0.6,0.5,0.9c0.1,0.4,0.1,0.8,0.1,1.2
						c-0.1,0.4-0.2,0.8-0.4,1.2s-0.4,0.7-0.7,0.9c-0.3,0.3-0.6,0.5-1,0.6c-0.4,0.1-0.8,0.2-1.2,0.2c-0.4,0-0.8-0.1-1.2-0.2
						c-0.3-0.1-0.6-0.4-0.8-0.6c-0.2-0.3-0.4-0.6-0.5-0.9C138.8,181.1,138.8,180.7,138.9,180.3z M139.4,180.3c0,0.4,0,0.7,0,1
						c0.1,0.3,0.2,0.6,0.4,0.8c0.2,0.2,0.4,0.4,0.7,0.5c0.3,0.1,0.6,0.2,1,0.2s0.7-0.1,1-0.2s0.6-0.3,0.8-0.5s0.4-0.5,0.6-0.8
						s0.3-0.6,0.3-1c0-0.4,0-0.7,0-1c-0.1-0.3-0.2-0.6-0.4-0.8c-0.2-0.2-0.4-0.4-0.7-0.5c-0.3-0.1-0.6-0.2-1-0.2s-0.7,0.1-1,0.2
						c-0.3,0.1-0.6,0.3-0.8,0.5s-0.4,0.5-0.6,0.8S139.5,179.9,139.4,180.3z"/>
					<path fill="#58595B" d="M146.4,177.4h0.8l1.4,4.8l2.7-4.8h0.8l-0.8,5.7h-0.5l0.7-5h0l-2.9,5h-0.2l-1.5-5h0l-0.7,5h-0.5
						L146.4,177.4z"/>
					<path fill="#58595B" d="M153.8,177.4h1.6c0.2,0,0.4,0,0.6,0.1c0.2,0,0.4,0.1,0.6,0.2s0.3,0.3,0.4,0.5c0.1,0.2,0.1,0.4,0.1,0.7
						c0,0.3-0.1,0.5-0.2,0.7c-0.1,0.2-0.3,0.3-0.4,0.5c-0.2,0.1-0.4,0.2-0.6,0.3s-0.4,0.1-0.7,0.1h-1.2l-0.4,2.7H153L153.8,177.4z
						 M154,179.9h1.2c0.1,0,0.3,0,0.4-0.1c0.1,0,0.3-0.1,0.4-0.2c0.1-0.1,0.2-0.2,0.3-0.3c0.1-0.1,0.1-0.3,0.2-0.5
						c0-0.2,0-0.3,0-0.5c-0.1-0.1-0.1-0.2-0.2-0.3c-0.1-0.1-0.2-0.1-0.4-0.2c-0.1,0-0.3-0.1-0.4-0.1h-1.2L154,179.9z"/>
					<path fill="#58595B" d="M158.6,177.4h3.5l-0.1,0.5H159l-0.3,2h2.8l-0.1,0.5h-2.8l-0.3,2.2h3.1l-0.1,0.5h-3.6L158.6,177.4z"/>
					<path fill="#58595B" d="M164.7,177.9h-1.9l0.1-0.5h4.4l-0.1,0.5h-1.9l-0.7,5.2H164L164.7,177.9z"/>
					<path fill="#58595B" d="M168.3,177.4h0.5l-0.8,5.7h-0.5L168.3,177.4z"/>
					<path fill="#58595B" d="M171.7,177.9h-1.9l0.1-0.5h4.4l-0.1,0.5h-1.9l-0.7,5.2H171L171.7,177.9z"/>
					<path fill="#58595B" d="M175.3,177.4h0.5l-0.8,5.7h-0.5L175.3,177.4z"/>
					<path fill="#58595B" d="M176.8,177.4h0.6l1.1,5l2.5-5h0.6l-2.9,5.7h-0.5L176.8,177.4z"/>
					<path fill="#58595B" d="M182.5,177.4h3.5l-0.1,0.5H183l-0.3,2h2.8l-0.1,0.5h-2.8l-0.3,2.2h3.1l-0.1,0.5h-3.6L182.5,177.4z"/>
					<path fill="#58595B" d="M115.8,185h1.8c0.5,0,0.9,0.1,1.2,0.2c0.3,0.1,0.6,0.3,0.8,0.5c0.2,0.2,0.4,0.4,0.4,0.6
						c0.1,0.2,0.2,0.4,0.2,0.7c0,0.2,0,0.4,0,0.6s0,0.3,0,0.4s0,0.2-0.1,0.4c0,0.2-0.1,0.4-0.2,0.6c-0.1,0.2-0.2,0.4-0.4,0.7
						c-0.2,0.2-0.4,0.4-0.6,0.6s-0.6,0.3-0.9,0.5c-0.4,0.1-0.8,0.2-1.3,0.2H115L115.8,185z M115.6,190.2h1.1c0.4,0,0.7,0,1.1-0.1
						c0.3-0.1,0.6-0.2,0.9-0.4s0.5-0.4,0.7-0.7s0.3-0.6,0.4-1.1c0.1-0.4,0-0.8-0.1-1.1s-0.3-0.5-0.5-0.7c-0.2-0.2-0.5-0.3-0.8-0.4
						s-0.7-0.1-1-0.1h-1.1L115.6,190.2z"/>
					<path fill="#58595B" d="M122,185h0.5l-0.8,5.7h-0.5L122,185z"/>
					<path fill="#58595B" d="M124.3,185h3.4l-0.1,0.5h-2.9l-0.3,2h2.7l-0.1,0.5h-2.7l-0.4,2.7h-0.5L124.3,185z"/>
					<path fill="#58595B" d="M128.9,185h3.4l-0.1,0.5h-2.9l-0.3,2h2.7l-0.1,0.5H129l-0.4,2.7h-0.5L128.9,185z"/>
					<path fill="#58595B" d="M133.5,185h3.5l-0.1,0.5H134l-0.3,2h2.8l-0.1,0.5h-2.8l-0.3,2.2h3.1l-0.1,0.5h-3.6L133.5,185z"/>
					<path fill="#58595B" d="M138.5,185h1.5c0.1,0,0.2,0,0.3,0c0.1,0,0.3,0,0.4,0c0.1,0,0.3,0.1,0.4,0.1s0.3,0.1,0.4,0.3
						c0.1,0.1,0.2,0.3,0.2,0.4c0.1,0.2,0.1,0.4,0,0.6c0,0.3-0.1,0.5-0.2,0.7c-0.1,0.2-0.3,0.3-0.4,0.4s-0.3,0.2-0.5,0.2
						c-0.2,0.1-0.3,0.1-0.5,0.1l1.3,2.7h-0.6l-1.2-2.7h-1l-0.4,2.7h-0.5L138.5,185z M138.6,187.5h1.1c0.3,0,0.5,0,0.7-0.1
						s0.3-0.2,0.4-0.3s0.2-0.2,0.2-0.3s0.1-0.2,0.1-0.3c0-0.1,0-0.2,0-0.3c0-0.1-0.1-0.2-0.2-0.3c-0.1-0.1-0.2-0.2-0.4-0.3
						c-0.2-0.1-0.4-0.1-0.7-0.1h-1.1L138.6,187.5z"/>
					<path fill="#58595B" d="M143.4,185h3.5l-0.1,0.5h-2.9l-0.3,2h2.8l-0.1,0.5h-2.8l-0.3,2.2h3.1l-0.1,0.5h-3.6L143.4,185z"/>
					<path fill="#58595B" d="M148.3,185h0.7l2.8,5h0l0.7-5h0.5l-0.8,5.7h-0.7l-2.8-5h0l-0.7,5h-0.5L148.3,185z"/>
					<path fill="#58595B" d="M158.7,189.8c-0.3,0.4-0.7,0.6-1.1,0.8c-0.4,0.2-0.8,0.2-1.2,0.2c-0.4,0-0.8-0.1-1.2-0.2
						c-0.3-0.1-0.6-0.4-0.8-0.6c-0.2-0.3-0.4-0.6-0.5-0.9c-0.1-0.4-0.1-0.8,0-1.2c0.1-0.4,0.2-0.8,0.4-1.2c0.2-0.4,0.4-0.7,0.7-0.9
						c0.3-0.3,0.6-0.5,1-0.6c0.4-0.1,0.8-0.2,1.2-0.2c0.4,0,0.7,0.1,1,0.2c0.3,0.1,0.6,0.4,0.8,0.7l-0.5,0.4
						c-0.1-0.3-0.3-0.5-0.6-0.6c-0.3-0.1-0.5-0.2-0.8-0.2c-0.4,0-0.7,0.1-1,0.2c-0.3,0.1-0.6,0.3-0.8,0.5s-0.4,0.5-0.6,0.8
						s-0.3,0.6-0.3,1c0,0.4,0,0.7,0,1c0.1,0.3,0.2,0.6,0.4,0.8c0.2,0.2,0.4,0.4,0.7,0.5c0.3,0.1,0.6,0.2,1,0.2c0.1,0,0.3,0,0.5-0.1
						c0.2,0,0.3-0.1,0.5-0.2s0.3-0.2,0.5-0.3s0.3-0.2,0.4-0.4L158.7,189.8z"/>
					<path fill="#58595B" d="M160.5,185h3.5l-0.1,0.5H161l-0.3,2h2.8l-0.1,0.5h-2.8l-0.3,2.2h3.1l-0.1,0.5h-3.6L160.5,185z"/>
				</g>
				<g>
					<path fill="#58595B" d="M68.9,187.7l5.1-4.6c0.3-0.2,0.5-0.5,0.8-0.8c0.3-0.3,0.4-0.6,0.4-1c0-0.4-0.2-0.8-0.5-1
						c-0.3-0.3-0.7-0.4-1.1-0.4c-0.5,0-0.9,0.2-1.2,0.5c-0.3,0.3-0.5,0.7-0.5,1.2l-2.8-0.2c0-0.7,0.2-1.3,0.4-1.8
						c0.2-0.5,0.6-0.9,1-1.3c0.4-0.3,0.9-0.6,1.4-0.8s1.1-0.2,1.8-0.2c0.6,0,1.2,0.1,1.7,0.2c0.5,0.2,1,0.4,1.4,0.7
						c0.4,0.3,0.7,0.7,0.9,1.2c0.2,0.5,0.3,1.1,0.3,1.7c0,0.4,0,0.8-0.1,1.1c-0.1,0.3-0.2,0.6-0.4,0.9c-0.2,0.3-0.3,0.5-0.5,0.8
						c-0.2,0.2-0.4,0.5-0.7,0.7l-4,3.4h5.8v2.4h-9.2V187.7z"/>
					<path fill="#58595B" d="M79.6,184.1c0-0.8,0.1-1.6,0.2-2.4s0.4-1.5,0.8-2.2s0.9-1.2,1.5-1.6s1.4-0.6,2.4-0.6
						c1,0,1.8,0.2,2.4,0.6c0.6,0.4,1.1,0.9,1.5,1.6s0.6,1.4,0.8,2.2s0.2,1.6,0.2,2.4c0,0.8-0.1,1.6-0.2,2.4s-0.4,1.5-0.8,2.2
						s-0.9,1.2-1.5,1.6c-0.6,0.4-1.4,0.6-2.4,0.6c-1,0-1.8-0.2-2.4-0.6s-1.1-0.9-1.5-1.6s-0.6-1.4-0.8-2.2S79.6,184.9,79.6,184.1z
						 M82.4,184.1c0,0.3,0,0.8,0,1.2c0,0.5,0.1,0.9,0.3,1.4c0.1,0.4,0.3,0.8,0.6,1.1c0.3,0.3,0.7,0.5,1.2,0.5c0.5,0,0.9-0.2,1.2-0.5
						c0.3-0.3,0.5-0.7,0.6-1.1c0.1-0.4,0.2-0.9,0.3-1.4s0-0.9,0-1.2c0-0.3,0-0.8,0-1.2s-0.1-0.9-0.3-1.4s-0.3-0.8-0.6-1.1
						c-0.3-0.3-0.7-0.5-1.2-0.5c-0.5,0-0.9,0.2-1.2,0.5c-0.3,0.3-0.5,0.7-0.6,1.1c-0.1,0.4-0.2,0.9-0.3,1.4
						C82.4,183.3,82.4,183.7,82.4,184.1z"/>
					<path fill="#58595B" d="M95.3,180.6l-2.6,2.3l-1.6-1.8l4.3-3.6H98v13.1h-2.7V180.6z"/>
					<path fill="#58595B" d="M110.6,180h-5.2l-0.1,2c0.3-0.1,0.7-0.1,1.2-0.1c0.7,0,1.3,0.1,1.8,0.3c0.6,0.2,1,0.5,1.4,0.9
						c0.4,0.4,0.7,0.8,0.9,1.4s0.3,1.1,0.3,1.8c0,0.7-0.1,1.4-0.4,2c-0.3,0.6-0.6,1.1-1,1.5c-0.4,0.4-1,0.7-1.6,0.9
						c-0.6,0.2-1.3,0.3-2,0.3c-1.1,0-2.1-0.3-2.9-0.8c-0.8-0.6-1.3-1.4-1.6-2.5l2.9-0.7c0.1,0.5,0.3,0.9,0.6,1.1
						c0.3,0.3,0.7,0.4,1.2,0.4c0.6,0,1.1-0.2,1.4-0.6c0.4-0.4,0.5-0.8,0.5-1.4c0-0.4-0.1-0.8-0.3-1.1c-0.2-0.3-0.4-0.5-0.7-0.7
						s-0.6-0.3-1-0.3c-0.4-0.1-0.7-0.1-1.1-0.1c-0.5,0-0.9,0-1.4,0.1c-0.5,0.1-0.9,0.2-1.3,0.4l0.1-7.3h7.9V180z"/>
				</g>
			</g>
			<g>
				<g>
					<path fill="#58595B" d="M111.8,135.6l-0.3-0.1c-0.2-0.1-0.4-0.1-0.4-0.4c0-0.2,0.2-0.3,0.4-0.3c0.2,0,0.5,0.1,0.7,0.3l0.4-0.8
						c-0.3-0.2-0.8-0.3-1.2-0.3c-0.8,0-1.3,0.5-1.3,1.3c0,0.7,0.4,0.9,1,1.1c0.2,0.1,0.6,0.2,0.6,0.4c0,0.3-0.2,0.4-0.5,0.4
						c-0.3,0-0.6-0.2-0.9-0.4l-0.4,0.8c0.4,0.3,0.9,0.4,1.3,0.4c0.4,0,0.8-0.1,1.1-0.4c0.3-0.3,0.4-0.6,0.4-1
						C112.7,136,112.3,135.8,111.8,135.6z"/>
					<path fill="#58595B" d="M112.8,118.8c-0.9-1.1-1.4-2.6-1.4-4.1c0-3.6,3-6.6,6.6-6.6c0.8,0,1.6,0.1,2.3,0.4
						c0.1-0.1,0.2-0.3,0.3-0.4c-1.1-0.9-2.6-1.5-4.1-1.5c-3.6,0-6.6,3-6.6,6.6C109.8,115.6,111,117.6,112.8,118.8z"/>
					<path fill="#58595B" d="M123,113.3c0-1.2-0.3-2.2-0.8-3.2c-0.5,0.9-0.8,2-0.8,3.2c0,1.2,0.3,2.2,0.8,3.2
						C122.7,115.5,123,114.4,123,113.3z"/>
					<path fill="#58595B" d="M125.6,119.5c0.9-1.4,1.4-3,1.4-4.8c0-1.9-0.6-3.7-1.6-5.1c1.1-0.9,2.6-1.5,4.1-1.5
						c0.8,0,1.6,0.1,2.3,0.4c0.1-0.1,0.2-0.3,0.3-0.4c-1.1-0.9-2.6-1.5-4.1-1.5c-1.6,0-3,0.5-4.1,1.5c1,1.5,1.6,3.2,1.6,5.1
						c0,1.9-0.6,3.7-1.6,5.1C124.3,118.9,125,119.2,125.6,119.5z"/>
					<polygon fill="#58595B" points="117.2,135.2 116.5,134.1 115.3,134.1 116.7,136.1 116.7,137.9 117.7,137.9 117.7,136.1 
						119.1,134.1 117.9,134.1 					"/>
					<polygon fill="#58595B" points="116.9,128.3 117.7,128.3 117.7,131.3 118.7,131.3 118.7,128.3 119.5,128.3 119.5,127.5 
						116.9,127.5 					"/>
					<polygon fill="#58595B" points="140.8,127.5 140.8,131.3 142.9,131.3 142.9,130.5 141.7,130.5 141.7,127.5 					"/>
					<path fill="#58595B" d="M134.5,113.3c0-1.2-0.3-2.2-0.8-3.2c-0.5,0.9-0.8,2-0.8,3.2c0,1.2,0.3,2.2,0.8,3.2
						C134.2,115.5,134.5,114.4,134.5,113.3z"/>
					<path fill="#58595B" d="M139.5,122.3c-2.2,0-4.2-0.8-5.8-2.1c-1.6,1.3-3.6,2.1-5.8,2.1c-2.2,0-4.2-0.8-5.8-2.1
						c-1.6,1.3-3.6,2.1-5.8,2.1c-1.9,0-3.7-0.6-5.2-1.7c1.7,1.9,4.1,3.1,6.8,3.1c2.2,0,4.2-0.8,5.8-2.1c1.6,1.3,3.6,2.1,5.8,2.1
						c2.2,0,4.2-0.8,5.8-2.1c1.6,1.3,3.6,2.1,5.8,2.1c5,0,9-4,9-9c0-3-1.5-5.7-3.8-7.4c1.4,1.6,2.2,3.7,2.2,5.9
						C148.5,118.2,144.5,122.3,139.5,122.3z"/>
					<path fill="#58595B" d="M137.2,119.5c0.9-1.4,1.4-3,1.4-4.8c0-1.9-0.6-3.7-1.6-5.1c1.1-0.9,2.6-1.5,4.1-1.5
						c1.3,0,2.5,0.4,3.6,1.1c-1.2-1.5-3.1-2.5-5.2-2.5c-1.6,0-3,0.5-4.1,1.5c1,1.5,1.6,3.2,1.6,5.1c0,1.9-0.6,3.7-1.6,5.1
						C135.9,118.9,136.5,119.2,137.2,119.5z"/>
					<path fill="#58595B" d="M141.8,136.6h0.8c0,0.4-0.4,0.7-0.8,0.7c-0.7,0-1-0.6-1-1.2c0-0.6,0.3-1.2,1-1.2c0.4,0,0.7,0.2,0.8,0.6
						l0.9-0.4c-0.3-0.7-0.9-1.1-1.7-1.1c-1.2,0-2.1,0.8-2.1,2.1c0,1.2,0.8,2,2,2c0.6,0,1.2-0.2,1.6-0.7c0.3-0.5,0.4-0.9,0.4-1.5h-2
						V136.6z"/>
					<path fill="#58595B" d="M135.4,127.5l-1.5,3.8h1.1l0.3-0.7h1.4l0.2,0.7h1.1l-1.4-3.8H135.4z M135.5,129.9l0.4-1.2h0l0.4,1.2
						H135.5z"/>
					<path fill="#58595B" d="M136.9,135.3c0-0.8-0.6-1.2-1.3-1.2h-1.5v3.8h1v-1.5h0l0.9,1.5h1.2l-1.2-1.6
						C136.6,136.3,136.9,135.8,136.9,135.3z M135.2,135.8L135.2,135.8l-0.1-0.9h0.1c0.3,0,0.7,0.1,0.7,0.5
						C135.8,135.8,135.5,135.8,135.2,135.8z"/>
					<polygon fill="#58595B" points="124.6,136.5 124.6,136.5 122.8,134.1 121.8,134.1 121.8,137.9 122.8,137.9 122.8,135.6 
						122.8,135.6 124.6,137.9 125.6,137.9 125.6,134.1 124.6,134.1 					"/>
					<polygon fill="#58595B" points="129.1,128.3 129.9,128.3 129.9,131.3 130.9,131.3 130.9,128.3 131.7,128.3 131.7,127.5 
						129.1,127.5 					"/>
					<polygon fill="#58595B" points="149,134.1 148.3,135.2 147.5,134.1 146.4,134.1 147.8,136.1 147.8,137.9 148.7,137.9 
						148.7,136.1 150.2,134.1 					"/>
					<polygon fill="#58595B" points="128.8,137.9 130.9,137.9 130.9,137.1 129.8,137.1 129.8,136.4 130.9,136.4 130.9,135.6 
						129.8,135.6 129.8,135 130.9,135 130.9,134.1 128.8,134.1 					"/>
					<path fill="#58595B" d="M124.3,127.4c-1.1,0-2.1,0.8-2.1,2c0,1.2,0.9,2.1,2.1,2.1s2.1-0.9,2.1-2.1
						C126.4,128.2,125.4,127.4,124.3,127.4z M124.3,130.5c-0.6,0-1.1-0.5-1.1-1.1c0-0.5,0.5-1,1.1-1c0.6,0,1.1,0.5,1.1,1
						C125.4,130,124.9,130.5,124.3,130.5z"/>
				</g>
			</g>
		</g>
	</g>
	<g>
		<g>
			<defs>
				<path id="SVGID_1_" d="M1713.9-202.7L1590.5,118L1407,134.5L1187.1-22.5L1044-25L823.3,29.5l-48.8-57.9l9.9-10.7l-58.2-291.8
					L929.9-450l119.9-134.1l71.9,44.1l25.3-85.3l164-11l-22.9,100l124.6,75.6l34.7-225.7L1713.9-202.7z M1502,266l39.7,12.4
					l45.4-97.6l-105.7,13.2L1502,266z"/>
			</defs>
			<clipPath id="SVGID_2_">
				<use xlink:href="#SVGID_1_"  overflow="visible"/>
			</clipPath>
			<g clip-path="url(#SVGID_2_)">
				<polygon fill="#0087BA" points="-138.1,-55.5 13.2,-97.4 -123.6,23.4 -199.5,-21.7 				"/>
				<polygon fill="#009AD4" points="13.2,-97.4 114.6,36.2 -123.6,23.4 				"/>
				<polygon fill="#00ADE4" points="-123.6,23.4 13.2,89.3 114.6,36.2 				"/>
				<polygon fill="#009CD6" points="13.2,89.3 -93.1,100.6 -123.6,23.4 				"/>
				<polygon fill="#008CAA" points="198.3,-140.8 274,-55.5 198.3,50.7 				"/>
				<polygon fill="#0093B3" points="274,-55.5 484.8,132.8 198.3,50.7 				"/>
				<polygon fill="#00A7CB" points="274,-55.5 426.9,-71.6 484.8,132.8 				"/>
				<polygon fill="#00B1C7" points="426.9,-71.6 536.3,12.1 484.8,132.8 				"/>
				<polygon fill="#009AAD" points="426.9,-71.6 608.7,-158.5 536.3,12.1 				"/>
				<polygon fill="#00AEDD" points="13.2,-97.4 114.6,36.2 198.3,-140.8 				"/>
				<polygon fill="#0084A0" points="114.6,36.2 198.3,50.7 198.3,-140.8 				"/>
				<polygon fill="#0087BA" points="-138.1,-56.7 13.2,-98.5 -123.6,22.2 -199.5,-22.9 				"/>
				<polygon fill="#009AD4" points="13.2,-98.5 114.6,35.1 -123.6,22.2 				"/>
				<polygon fill="#00ADE4" points="-123.6,22.2 13.2,88.2 114.6,35.1 				"/>
				<polygon fill="#009CD6" points="13.2,88.2 -93.1,99.4 -123.6,22.2 				"/>
				<polygon fill="#008CAA" points="198.3,-142 274,-56.7 198.3,49.5 				"/>
				<polygon fill="#0093B3" points="274,-56.7 484.8,131.6 198.3,49.5 				"/>
				<polygon fill="#00A7CB" points="274,-56.7 426.9,-72.8 484.8,131.6 				"/>
				<polygon fill="#00B1C7" points="426.9,-72.8 536.3,10.9 484.8,131.6 				"/>
				<polygon fill="#009AAD" points="426.9,-72.8 608.7,-159.7 536.3,10.9 				"/>
				<polygon fill="#00AEDD" points="13.2,-98.5 114.6,35.1 198.3,-142 				"/>
				<polygon fill="#0084A0" points="114.6,35.1 198.3,49.5 198.3,-142 				"/>
			</g>
		</g>
	</g>
</g>
<g id="Layer_2" display="none">
</g>
</svg>
