<?xml version="1.0" encoding="utf-8"?>
<!-- Generator: Adobe Illustrator 18.0.0, SVG Export Plug-In . SVG Version: 6.00 Build 0)  -->
<!DOCTYPE svg PUBLIC "-//W3C//DTD SVG 1.1//EN" "http://www.w3.org/Graphics/SVG/1.1/DTD/svg11.dtd">
<svg version="1.1" xmlns="http://www.w3.org/2000/svg" xmlns:xlink="http://www.w3.org/1999/xlink" x="0px" y="0px"
	 viewBox="0 0 1036 1012" enable-background="new 0 0 1036 1012" xml:space="preserve">
<g id="Layer_1">
	<g>
		<g>
			<defs>
				<path id="SVGID_1_" d="M1024.9,517.3L901.5,838L718,854.5L498.1,697.5L355,695l-220.7,54.6l-48.8-57.9l9.9-10.7L37.2,389.1
					L240.9,270l119.9-134.1l71.9,44.1l25.3-85.3l164-11l-22.9,100l124.6,75.6l34.7-225.7L1024.9,517.3z M813,986l39.7,12.4
					l45.4-97.6l-105.7,13.2L813,986z"/>
			</defs>
			<clipPath id="SVGID_2_">
				<use xlink:href="#SVGID_1_"  overflow="visible"/>
			</clipPath>
			<g clip-path="url(#SVGID_2_)">
				<polygon fill="#009C9F" points="-6.3,732.1 85.5,750.6 -40,833.5 				"/>
				<polygon fill="#00B5A7" points="132.2,881.8 235.2,809.3 161.1,776.3 				"/>
				<polygon fill="#00A699" points="-40,833.5 132.2,881.8 85.5,750.6 				"/>
				<polygon fill="#00ADA8" points="85.5,750.6 124.1,698.3 161.1,776.3 132.2,881.8 				"/>
				<polygon fill="#00B6A0" points="124.1,698.3 251.2,720.8 161.1,776.3 				"/>
				<polygon fill="#20B798" points="124.1,698.3 56.5,698.3 85.5,750.6 				"/>
				<polygon fill="#00A9AD" points="56.5,698.3 -6.3,732.1 85.5,750.6 				"/>
				<polygon fill="#00A1A5" points="56.5,698.3 90.3,606.5 -6.3,732.1 				"/>
				<polygon fill="#00B4AF" points="-80.3,561.5 90.3,606.5 -6.3,732.1 				"/>
				<polygon fill="#00B1C7" points="-80.3,561.5 85.5,504 90.3,606.5 				"/>
				<polygon fill="#00A3B7" points="-80.3,561.5 5,421.5 85.5,504 				"/>
				<polygon fill="#00B1C7" points="-80.3,561.5 -123.7,434.3 5,421.5 				"/>
				<polygon fill="#0099AB" points="-167.2,138.2 56.5,292.7 -79.5,380.4 				"/>
				<polygon fill="#00AFD5" points="-79.5,380.4 5,421.5 -123.7,434.3 				"/>
				<polygon fill="#009EB1" points="-79.5,380.4 56.5,292.7 5,421.5 				"/>
				<polygon fill="#00AFD5" points="-167.2,138.2 100,138.2 56.5,292.7 				"/>
				<polygon fill="#00A2B6" points="56.5,292.7 74.2,349.8 5,421.5 				"/>
				<polygon fill="#009DB0" points="74.2,349.8 109.6,363.5 5,421.5 				"/>
				<polygon fill="#00B1C7" points="109.6,363.5 85.5,504 5,421.5 				"/>
				<polygon fill="#00AB9E" points="85.5,504 146.6,621.8 90.3,606.5 				"/>
				<polygon fill="#00B3B7" points="109.6,363.5 235.2,484.2 85.5,504 				"/>
				<polygon fill="#00ADB1" points="146.6,621.8 124.1,698.3 90.3,606.5 				"/>
				<polygon fill="#00B1A3" points="90.3,606.5 124.1,698.3 56.5,698.3 				"/>
				<polygon fill="#00B5A7" points="146.6,621.8 235.2,484.2 85.5,504 				"/>
				<polygon fill="#45BA88" points="235.2,484.2 309.2,664.5 146.6,621.8 				"/>
				<polygon fill="#37B890" points="146.6,621.8 309.2,664.5 251.2,720.8 				"/>
				<polygon fill="#00B5A7" points="251.2,720.8 146.6,621.8 124.1,698.3 				"/>
				<polygon fill="#45BA88" points="251.2,720.8 235.2,809.3 161.1,776.3 				"/>
				<polygon fill="#58B574" points="235.2,809.3 352.7,912.3 251.2,720.8 				"/>
				<polygon fill="#5CBC79" points="251.2,720.8 309.2,664.5 352.7,912.3 				"/>
				<polygon fill="#5EB067" points="309.2,664.5 505.5,843.1 352.7,912.3 				"/>
				<polygon fill="#40AD80" points="352.7,912.3 251.2,988 235.2,809.3 				"/>
				<polygon fill="#20B798" points="251.2,988 344.6,1020.2 352.7,912.3 				"/>
				<polygon fill="#00A89C" points="352.7,912.3 344.6,1020.2 423.5,1110.3 				"/>
				<polygon fill="#34B08A" points="352.7,912.3 563.5,1040.5 423.5,1110.3 				"/>
				<polygon fill="#5CBC79" points="505.5,843.1 352.7,912.3 563.5,1040.5 				"/>
				<polygon fill="#77C05B" points="505.5,843.1 600.5,898.7 563.5,1040.5 				"/>
				<polygon fill="#6FBF65" points="600.5,898.7 755.4,985.6 563.5,1040.5 				"/>
				<polygon fill="#00A0B3" points="100,138.2 146.6,241.2 56.5,292.7 				"/>
				<polygon fill="#0097AA" points="146.6,241.2 74.2,349.8 56.5,292.7 				"/>
				<polygon fill="#00B2BF" points="146.6,241.2 109.6,363.5 74.2,349.8 				"/>
				<polygon fill="#00A7A3" points="146.6,241.2 235.2,484.2 109.6,363.5 				"/>
				<polygon fill="#00AABF" points="100,138.2 267.4,199.4 146.6,241.2 				"/>
				<polygon fill="#008B9C" points="100,138.2 251.2,-66.2 267.4,199.4 				"/>
				<polygon fill="#009DB0" points="251.2,-66.2 328.5,128.6 267.4,199.4 				"/>
				<polygon fill="#00B1C7" points="251.2,-66.2 458.1,94.8 328.5,128.6 				"/>
				<polygon fill="#00A7A3" points="328.5,128.6 384,295.5 267.4,199.4 				"/>
				<polygon fill="#00AEAA" points="146.6,241.2 267.4,199.4 235.2,484.2 				"/>
				<polygon fill="#00B4AF" points="267.4,199.4 384,295.5 235.2,484.2 				"/>
				<polygon fill="#00AEAA" points="384,295.5 373.6,464.1 235.2,484.2 				"/>
				<polygon fill="#37B890" points="373.6,464.1 325.7,535.7 235.2,484.2 				"/>
				<polygon fill="#5CBC79" points="325.7,535.7 309.2,664.5 235.2,484.2 				"/>
				<polygon fill="#1EAF91" points="325.7,535.7 439.6,535.7 373.6,464.1 				"/>
				<polygon fill="#20B798" points="325.7,535.7 439.6,535.7 309.2,664.5 				"/>
				<polygon fill="#20B798" points="384,295.5 505.5,421.5 373.6,464.1 				"/>
				<polygon fill="#00B5A7" points="384,295.5 458.1,94.8 328.5,128.6 				"/>
				<polygon fill="#5CBC79" points="439.6,535.7 526.5,600.1 309.2,664.5 				"/>
				<polygon fill="#7BB642" points="309.2,664.5 498.1,697.5 526.5,600.1 				"/>
				<polygon fill="#73AB3E" points="498.1,697.5 505.5,843.1 309.2,664.5 				"/>
				<polygon fill="#7BB642" points="498.1,697.5 600.5,898.7 505.5,843.1 				"/>
				<polygon fill="#85BD3C" points="498.1,697.5 663.3,671.3 600.5,898.7 				"/>
				<polygon fill="#7BB642" points="663.3,671.3 755.4,985.6 600.5,898.7 				"/>
				<polygon fill="#8BC53F" points="755.4,985.6 901.5,838 663.3,671.3 				"/>
				<polygon fill="#66BE6E" points="901.5,838 852.8,998.4 755.4,985.6 				"/>
				<polygon fill="#20B798" points="505.5,421.5 439.6,535.7 373.6,464.1 				"/>
				<polygon fill="#85BD3C" points="526.5,600.1 613.4,585.6 498.1,697.5 				"/>
				<polygon fill="#85C448" points="613.4,585.6 663.3,671.3 498.1,697.5 				"/>
				<path fill="#8BC53F" d="M613.4,585.6L505.5,421.5c0,0,13.6,179.9,20.9,178.6S613.4,585.6,613.4,585.6z"/>
				<polygon fill="#33AD87" points="384,295.5 569.9,370 505.5,421.5 				"/>
				<polygon fill="#82B93B" points="569.9,370 613.4,585.6 505.5,421.5 				"/>
				<polygon fill="#85BD3C" points="569.9,370 701.9,484.2 613.4,585.6 				"/>
				<polygon fill="#7BB642" points="701.9,484.2 663.3,671.3 613.4,585.6 				"/>
				<polygon fill="#85C448" points="701.9,484.2 862.8,596.1 663.3,671.3 				"/>
				<polygon fill="#77C05B" points="663.3,671.3 862.8,596.1 901.5,838 				"/>
				<polygon fill="#7ABC4F" points="901.5,838 974.8,754.7 862.8,596.1 				"/>
				<polygon fill="#77C05B" points="852.8,998.4 974.8,754.7 901.5,838 				"/>
				<polygon fill="#34B08A" points="384,295.5 600.5,128.6 458.1,94.8 				"/>
				<polygon fill="#00988C" points="458.1,94.8 477,-66.2 584.4,23.9 				"/>
				<polygon fill="#2FA481" points="477,-66.2 657.6,-120.9 584.4,23.9 				"/>
				<polygon fill="#37B890" points="657.6,-120.9 622.1,83.7 584.4,23.9 				"/>
				<polygon fill="#00A699" points="584.4,23.9 600.5,128.6 458.1,94.8 				"/>
				<polygon fill="#00B6A0" points="622.1,83.7 600.5,128.6 584.4,23.9 				"/>
				<polygon fill="#5CBC79" points="657.6,-120.9 755.4,33.6 622.1,83.7 				"/>
				<polygon fill="#49A975" points="622.1,83.7 850,249.3 600.5,128.6 				"/>
				<polygon fill="#30A682" points="600.5,128.6 569.9,370 384,295.5 				"/>
				<polygon fill="#33AE88" points="600.5,128.6 745.3,370 569.9,370 				"/>
				<polygon fill="#66BE6E" points="745.3,370 701.9,484.2 569.9,370 				"/>
				<polygon fill="#51BB80" points="600.5,128.6 850,249.3 745.3,370 				"/>
				<polygon fill="#4EB37C" points="622.1,83.7 755.4,33.6 850,249.3 				"/>
				<polygon fill="#60BF8B" points="755.4,33.6 959.4,167.2 850,249.3 				"/>
				<polygon fill="#34B18A" points="850,249.3 841.9,409.8 745.3,370 				"/>
				<polygon fill="#5CBC79" points="745.3,370 841.9,409.8 771.1,464.1 				"/>
				<polygon fill="#5AA962" points="745.3,370 771.1,464.1 701.9,484.2 				"/>
				<polygon fill="#6EB354" points="771.1,464.1 862.8,596.1 701.9,484.2 				"/>
				<polygon fill="#66BE6E" points="771.1,464.1 841.9,409.8 862.8,596.1 				"/>
				<polygon fill="#1CA68A" points="841.9,409.8 1028.6,212 850,249.3 				"/>
				<polygon fill="#45BA88" points="959.4,167.2 1028.6,212 850,249.3 				"/>
				<polygon fill="#33AE88" points="1028.6,212 1024.9,517.3 841.9,409.8 				"/>
				<polygon fill="#6FBF65" points="841.9,409.8 1024.9,517.3 862.8,596.1 				"/>
				<polygon fill="#68B45F" points="862.8,596.1 1024.9,517.3 949.7,664.5 				"/>
				<polygon fill="#63AD5B" points="949.7,664.5 1081.7,704.7 1024.9,517.3 				"/>
				<polygon fill="#77C05B" points="862.8,596.1 949.7,664.5 974.8,754.7 				"/>
				<polygon fill="#66B15E" points="949.7,664.5 1081.7,704.7 974.8,754.7 				"/>
				<polygon fill="#37B890" points="1024.9,517.3 1270,167.2 1028.6,212 				"/>
				<polygon fill="#4FB57D" points="1270,167.2 1300.6,349.8 1024.9,517.3 				"/>
				<polygon fill="#66BE6E" points="1024.9,517.3 1300.6,633.3 1081.7,704.7 				"/>
				<polygon fill="#4BAE78" points="1024.9,517.3 1300.6,349.8 1300.6,633.3 				"/>
				<polygon fill="#00AB96" points="124.1,698.3 85.5,750.6 161.1,776.3 				"/>
				<polygon fill="#6FBF65" points="505.5,421.5 526.5,600.1 439.6,535.7 				"/>
				<polygon fill="#009C9F" points="-6.3,730.9 85.5,749.4 -40,832.3 				"/>
				<polygon fill="#00B5A7" points="132.2,880.6 235.2,808.2 161.1,775.2 				"/>
				<polygon fill="#00A699" points="-40,832.3 132.2,880.6 85.5,749.4 				"/>
				<polygon fill="#00ADA8" points="85.5,749.4 124.1,697.1 161.1,775.2 132.2,880.6 				"/>
				<polygon fill="#00B6A0" points="124.1,697.1 251.2,719.6 161.1,775.2 				"/>
				<polygon fill="#20B798" points="124.1,697.1 56.5,697.1 85.5,749.4 				"/>
				<polygon fill="#00A9AD" points="56.5,697.1 -6.3,730.9 85.5,749.4 				"/>
				<polygon fill="#00A1A5" points="56.5,697.1 90.3,605.4 -6.3,730.9 				"/>
				<polygon fill="#00B4AF" points="-80.3,560.3 90.3,605.4 -6.3,730.9 				"/>
				<polygon fill="#00B1C7" points="-80.3,560.3 85.5,502.8 90.3,605.4 				"/>
				<polygon fill="#00A3B7" points="-80.3,560.3 5,420.3 85.5,502.8 				"/>
				<polygon fill="#00B1C7" points="-80.3,560.3 -123.7,433.2 5,420.3 				"/>
				<polygon fill="#0099AB" points="-167.2,137 56.5,291.5 -79.5,379.3 				"/>
				<polygon fill="#00AFD5" points="-79.5,379.3 5,420.3 -123.7,433.2 				"/>
				<polygon fill="#009EB1" points="-79.5,379.3 56.5,291.5 5,420.3 				"/>
				<polygon fill="#00AFD5" points="-167.2,137 100,137 56.5,291.5 				"/>
				<polygon fill="#00A2B6" points="56.5,291.5 74.2,348.7 5,420.3 				"/>
				<polygon fill="#009DB0" points="74.2,348.7 109.6,362.4 5,420.3 				"/>
				<polygon fill="#00B1C7" points="109.6,362.4 85.5,502.8 5,420.3 				"/>
				<polygon fill="#00AB9E" points="85.5,502.8 146.6,620.7 90.3,605.4 				"/>
				<polygon fill="#00B3B7" points="109.6,362.4 235.2,483.1 85.5,502.8 				"/>
				<polygon fill="#00ADB1" points="146.6,620.7 124.1,697.1 90.3,605.4 				"/>
				<polygon fill="#00B1A3" points="90.3,605.4 124.1,697.1 56.5,697.1 				"/>
				<polygon fill="#00B5A7" points="146.6,620.7 235.2,483.1 85.5,502.8 				"/>
				<polygon fill="#45BA88" points="235.2,483.1 309.2,663.3 146.6,620.7 				"/>
				<polygon fill="#37B890" points="146.6,620.7 309.2,663.3 251.2,719.6 				"/>
				<polygon fill="#00B5A7" points="251.2,719.6 146.6,620.7 124.1,697.1 				"/>
				<polygon fill="#45BA88" points="251.2,719.6 235.2,808.2 161.1,775.2 				"/>
				<polygon fill="#58B574" points="235.2,808.2 352.7,911.2 251.2,719.6 				"/>
				<polygon fill="#5CBC79" points="251.2,719.6 309.2,663.3 352.7,911.2 				"/>
				<polygon fill="#5EB067" points="309.2,663.3 505.5,842 352.7,911.2 				"/>
				<polygon fill="#40AD80" points="352.7,911.2 251.2,986.8 235.2,808.2 				"/>
				<polygon fill="#20B798" points="251.2,986.8 344.6,1019 352.7,911.2 				"/>
				<polygon fill="#00A89C" points="352.7,911.2 344.6,1019 423.5,1109.1 				"/>
				<polygon fill="#34B08A" points="352.7,911.2 563.5,1039.3 423.5,1109.1 				"/>
				<polygon fill="#5CBC79" points="505.5,842 352.7,911.2 563.5,1039.3 				"/>
				<polygon fill="#77C05B" points="505.5,842 600.5,897.5 563.5,1039.3 				"/>
				<polygon fill="#6FBF65" points="600.5,897.5 755.4,984.4 563.5,1039.3 				"/>
				<polygon fill="#00A0B3" points="100,137 146.6,240 56.5,291.5 				"/>
				<polygon fill="#0097AA" points="146.6,240 74.2,348.7 56.5,291.5 				"/>
				<polygon fill="#00B2BF" points="146.6,240 109.6,362.4 74.2,348.7 				"/>
				<polygon fill="#00A7A3" points="146.6,240 235.2,483.1 109.6,362.4 				"/>
				<polygon fill="#00AABF" points="100,137 267.4,198.2 146.6,240 				"/>
				<polygon fill="#008B9C" points="100,137 251.2,-67.4 267.4,198.2 				"/>
				<polygon fill="#009DB0" points="251.2,-67.4 328.5,127.4 267.4,198.2 				"/>
				<polygon fill="#00B1C7" points="251.2,-67.4 458.1,93.6 328.5,127.4 				"/>
				<polygon fill="#00A7A3" points="328.5,127.4 384,294.4 267.4,198.2 				"/>
				<polygon fill="#00AEAA" points="146.6,240 267.4,198.2 235.2,483.1 				"/>
				<polygon fill="#00B4AF" points="267.4,198.2 384,294.4 235.2,483.1 				"/>
				<polygon fill="#00AEAA" points="384,294.4 373.6,462.9 235.2,483.1 				"/>
				<polygon fill="#37B890" points="373.6,462.9 325.7,534.6 235.2,483.1 				"/>
				<polygon fill="#5CBC79" points="325.7,534.6 309.2,663.3 235.2,483.1 				"/>
				<polygon fill="#1EAF91" points="325.7,534.6 439.6,534.6 373.6,462.9 				"/>
				<polygon fill="#20B798" points="325.7,534.6 439.6,534.6 309.2,663.3 				"/>
				<polygon fill="#20B798" points="384,294.4 505.5,420.3 373.6,462.9 				"/>
				<polygon fill="#00B5A7" points="384,294.4 458.1,93.6 328.5,127.4 				"/>
				<polygon fill="#5CBC79" points="439.6,534.6 526.5,598.9 309.2,663.3 				"/>
				<polygon fill="#7BB642" points="309.2,663.3 498.1,696.3 526.5,598.9 				"/>
				<polygon fill="#73AB3E" points="498.1,696.3 505.5,842 309.2,663.3 				"/>
				<polygon fill="#7BB642" points="498.1,696.3 600.5,897.5 505.5,842 				"/>
				<polygon fill="#85BD3C" points="498.1,696.3 663.3,670.2 600.5,897.5 				"/>
				<polygon fill="#7BB642" points="663.3,670.2 755.4,984.4 600.5,897.5 				"/>
				<polygon fill="#8BC53F" points="755.4,984.4 901.5,836.8 663.3,670.2 				"/>
				<polygon fill="#66BE6E" points="901.5,836.8 852.8,997.2 755.4,984.4 				"/>
				<polygon fill="#20B798" points="505.5,420.3 439.6,534.6 373.6,462.9 				"/>
				<polygon fill="#85BD3C" points="526.5,598.9 613.4,584.5 498.1,696.3 				"/>
				<polygon fill="#85C448" points="613.4,584.5 663.3,670.2 498.1,696.3 				"/>
				<path fill="#8BC53F" d="M613.4,584.5L505.5,420.3c0,0,13.6,179.9,20.9,178.6S613.4,584.5,613.4,584.5z"/>
				<polygon fill="#33AD87" points="384,294.4 569.9,368.8 505.5,420.3 				"/>
				<polygon fill="#82B93B" points="569.9,368.8 613.4,584.5 505.5,420.3 				"/>
				<polygon fill="#85BD3C" points="569.9,368.8 701.9,483.1 613.4,584.5 				"/>
				<polygon fill="#7BB642" points="701.9,483.1 663.3,670.2 613.4,584.5 				"/>
				<polygon fill="#85C448" points="701.9,483.1 862.8,594.9 663.3,670.2 				"/>
				<polygon fill="#77C05B" points="663.3,670.2 862.8,594.9 901.5,836.8 				"/>
				<polygon fill="#7ABC4F" points="901.5,836.8 974.8,753.6 862.8,594.9 				"/>
				<polygon fill="#77C05B" points="852.8,997.2 974.8,753.6 901.5,836.8 				"/>
				<polygon fill="#34B08A" points="384,294.4 600.5,127.4 458.1,93.6 				"/>
				<polygon fill="#00988C" points="458.1,93.6 477,-67.4 584.4,22.8 				"/>
				<polygon fill="#2FA481" points="477,-67.4 657.6,-122.1 584.4,22.8 				"/>
				<polygon fill="#37B890" points="657.6,-122.1 622.1,82.6 584.4,22.8 				"/>
				<polygon fill="#00A699" points="584.4,22.8 600.5,127.4 458.1,93.6 				"/>
				<polygon fill="#00B6A0" points="622.1,82.6 600.5,127.4 584.4,22.8 				"/>
				<polygon fill="#5CBC79" points="657.6,-122.1 755.4,32.4 622.1,82.6 				"/>
				<polygon fill="#49A975" points="622.1,82.6 850,248.1 600.5,127.4 				"/>
				<polygon fill="#30A682" points="600.5,127.4 569.9,368.8 384,294.4 				"/>
				<polygon fill="#33AE88" points="600.5,127.4 745.3,368.8 569.9,368.8 				"/>
				<polygon fill="#66BE6E" points="745.3,368.8 701.9,483.1 569.9,368.8 				"/>
				<polygon fill="#51BB80" points="600.5,127.4 850,248.1 745.3,368.8 				"/>
				<polygon fill="#4EB37C" points="622.1,82.6 755.4,32.4 850,248.1 				"/>
				<polygon fill="#60BF8B" points="755.4,32.4 959.4,166 850,248.1 				"/>
				<polygon fill="#34B18A" points="850,248.1 841.9,408.6 745.3,368.8 				"/>
				<polygon fill="#5CBC79" points="745.3,368.8 841.9,408.6 771.1,462.9 				"/>
				<polygon fill="#5AA962" points="745.3,368.8 771.1,462.9 701.9,483.1 				"/>
				<polygon fill="#6EB354" points="771.1,462.9 862.8,594.9 701.9,483.1 				"/>
				<polygon fill="#66BE6E" points="771.1,462.9 841.9,408.6 862.8,594.9 				"/>
				<polygon fill="#1CA68A" points="841.9,408.6 1028.6,210.9 850,248.1 				"/>
				<polygon fill="#45BA88" points="959.4,166 1028.6,210.9 850,248.1 				"/>
				<polygon fill="#33AE88" points="1028.6,210.9 1024.9,516.1 841.9,408.6 				"/>
				<polygon fill="#6FBF65" points="841.9,408.6 1024.9,516.1 862.8,594.9 				"/>
				<polygon fill="#68B45F" points="862.8,594.9 1024.9,516.1 949.7,663.3 				"/>
				<polygon fill="#63AD5B" points="949.7,663.3 1081.7,703.6 1024.9,516.1 				"/>
				<polygon fill="#77C05B" points="862.8,594.9 949.7,663.3 974.8,753.6 				"/>
				<polygon fill="#66B15E" points="949.7,663.3 1081.7,703.6 974.8,753.6 				"/>
				<polygon fill="#37B890" points="1024.9,516.1 1270,166 1028.6,210.9 				"/>
				<polygon fill="#4FB57D" points="1270,166 1300.6,348.7 1024.9,516.1 				"/>
				<polygon fill="#66BE6E" points="1024.9,516.1 1300.6,632.1 1081.7,703.6 				"/>
				<polygon fill="#4BAE78" points="1024.9,516.1 1300.6,348.7 1300.6,632.1 				"/>
				<polygon fill="#00AB96" points="124.1,697.1 85.5,749.4 161.1,775.2 				"/>
				<polygon fill="#6FBF65" points="505.5,420.3 526.5,598.9 439.6,534.6 				"/>
			</g>
		</g>
		<g>
			<polygon opacity="0.9" fill="#FFF100" points="884.6,352.5 984.4,294.9 884.6,237.3 784.7,294.9 784.7,294.9 784.7,294.9 			"/>
			<polygon opacity="0.9" fill="#FFDD00" points="984.4,294.9 884.6,352.5 884.6,467.8 984.4,410.2 			"/>
			<polygon opacity="0.9" fill="#FFCA05" points="784.7,294.9 784.7,294.9 784.7,410.2 884.6,467.8 884.6,352.5 			"/>
		</g>
		<g>
			<polygon opacity="0.9" fill="#FFF100" points="893.8,675.4 993.6,617.8 893.8,560.1 793.9,617.8 793.9,617.8 793.9,617.8 			"/>
			<polygon opacity="0.9" fill="#FFDD00" points="993.6,617.8 893.8,675.4 893.8,790.7 993.6,733 			"/>
			<polygon opacity="0.9" fill="#FFCA05" points="793.9,617.8 793.9,617.8 793.9,733 893.8,790.7 893.8,675.4 			"/>
		</g>
		<g>
			<polygon opacity="0.9" fill="#FFF100" points="386.3,670 486.2,612.4 386.3,554.8 286.5,612.4 286.5,612.4 286.5,612.4 			"/>
			<polygon opacity="0.9" fill="#FFDD00" points="486.2,612.4 386.3,670 386.3,785.3 486.2,727.7 			"/>
			<polygon opacity="0.9" fill="#FFCA05" points="286.5,612.4 286.5,612.4 286.5,727.7 386.3,785.3 386.3,670 			"/>
		</g>
		<g>
			<polygon opacity="0.9" fill="#FFF100" points="112.9,540.2 212.7,482.6 112.9,425 13.1,482.6 13.1,482.6 13.1,482.6 			"/>
			<polygon opacity="0.9" fill="#FFDD00" points="212.7,482.6 112.9,540.2 112.9,655.5 212.7,597.9 			"/>
			<polygon opacity="0.9" fill="#FFCA05" points="13.1,482.6 13.1,482.6 13.1,597.9 112.9,655.5 112.9,540.2 			"/>
		</g>
		<g>
			<polygon opacity="0.9" fill="#FFF100" points="486.2,128.1 586,70.5 486.2,12.8 386.3,70.5 386.3,70.5 386.3,70.5 			"/>
			<polygon opacity="0.9" fill="#FFDD00" points="586,70.5 486.2,128.1 486.2,243.4 586,185.7 			"/>
			<polygon opacity="0.9" fill="#FFCA05" points="386.3,70.5 386.3,70.5 386.3,185.7 486.2,243.4 486.2,128.1 			"/>
		</g>
		<g>
			<polygon opacity="0.9" fill="#FFF100" points="664.5,799.6 764.3,742 664.5,684.3 564.6,742 564.6,742 564.6,742 			"/>
			<polygon opacity="0.9" fill="#FFDD00" points="764.3,742 664.5,799.6 664.5,914.9 764.3,857.2 			"/>
			<polygon opacity="0.9" fill="#FFCA05" points="564.6,742 564.6,742 564.6,857.2 664.5,914.9 664.5,799.6 			"/>
		</g>
		<g>
			<g>
				<g>
					<path fill="#58595B" d="M101.8,630L101.8,630l3.6-12.1h1.7l3.6,12.1h0l3.4-12.1h1.6l-4.2,14.2h-1.7l-3.6-12.1h0l-3.6,12.1H101
						l-4.2-14.2h1.6L101.8,630z"/>
					<path fill="#58595B" d="M117,632h-1.7l6.2-14.2h1.4L129,632h-1.7l-1.6-3.7h-7.2L117,632z M119.1,627h6.1l-3.1-7.4L119.1,627z"
						/>
				</g>
			</g>
			<rect x="100.5" y="632" fill="none" width="12.4" height="23.5"/>
		</g>
		<g>
			<g>
				<g>
					<path fill="#58595B" d="M382.5,750c-0.6-0.9-1.5-1.4-2.7-1.4c-0.4,0-0.7,0-1.1,0.2c-0.4,0.1-0.7,0.3-1,0.5
						c-0.3,0.2-0.5,0.5-0.7,0.8c-0.2,0.3-0.3,0.7-0.3,1.2c0,0.6,0.2,1.1,0.5,1.5c0.4,0.4,0.8,0.6,1.3,0.9c0.5,0.2,1.1,0.4,1.8,0.6
						c0.6,0.2,1.2,0.4,1.8,0.7c0.5,0.3,1,0.7,1.3,1.2s0.5,1.2,0.5,2c0,0.6-0.1,1.2-0.4,1.7c-0.3,0.5-0.6,0.9-1.1,1.3
						s-0.9,0.6-1.5,0.8s-1.1,0.3-1.7,0.3c-0.9,0-1.7-0.2-2.5-0.5c-0.8-0.3-1.4-0.9-2-1.6l1.3-0.9c0.3,0.5,0.7,0.9,1.3,1.2
						c0.5,0.3,1.2,0.5,1.9,0.5c0.4,0,0.7-0.1,1.1-0.2s0.7-0.3,1-0.5s0.5-0.5,0.7-0.8c0.2-0.3,0.3-0.7,0.3-1.1c0-0.5-0.1-0.9-0.3-1.2
						c-0.2-0.3-0.5-0.6-0.8-0.8c-0.3-0.2-0.7-0.4-1.2-0.5c-0.4-0.1-0.9-0.3-1.3-0.4s-0.9-0.3-1.3-0.5s-0.8-0.4-1.2-0.7
						c-0.3-0.3-0.6-0.6-0.8-1.1c-0.2-0.4-0.3-1-0.3-1.6c0-0.7,0.1-1.3,0.4-1.8c0.3-0.5,0.6-0.9,1-1.3c0.4-0.3,0.9-0.6,1.5-0.7
						c0.5-0.2,1.1-0.2,1.7-0.2c0.8,0,1.5,0.1,2.2,0.4c0.7,0.3,1.3,0.7,1.8,1.3L382.5,750z"/>
					<path fill="#58595B" d="M386.7,761.8H385l6.2-14.2h1.4l6.2,14.2h-1.7l-1.6-3.7h-7.2L386.7,761.8z M388.8,756.8h6.1l-3.1-7.4
						L388.8,756.8z"/>
				</g>
			</g>
			<rect x="373.9" y="761.8" fill="none" width="12.4" height="23.5"/>
		</g>
		<g>
			<g>
				<g>
					<path fill="#58595B" d="M644.9,867.2L644.9,867.2l4.7-12h1.6l-5.5,14.2h-1.4l-5.4-14.2h1.6L644.9,867.2z"/>
					<path fill="#58595B" d="M654.4,869.4H653v-14.2h1.4V869.4z"/>
					<path fill="#58595B" d="M669.9,867.1c-0.2,0.4-0.5,0.7-0.9,1c-0.4,0.3-0.8,0.6-1.2,0.8c-0.5,0.2-0.9,0.4-1.5,0.5
						c-0.5,0.1-1.1,0.2-1.7,0.2c-1.1,0-2-0.2-2.9-0.6s-1.7-0.9-2.3-1.5s-1.2-1.4-1.5-2.3c-0.4-0.9-0.6-1.9-0.6-3s0.2-2.1,0.6-3
						c0.4-0.9,0.9-1.7,1.5-2.4s1.4-1.2,2.3-1.5s1.9-0.6,2.9-0.6c0.9,0,1.8,0.2,2.6,0.5s1.6,0.9,2.3,1.7l-1.3,0.9
						c-0.1-0.2-0.3-0.5-0.6-0.7c-0.3-0.2-0.5-0.4-0.9-0.6c-0.3-0.2-0.7-0.3-1-0.4s-0.7-0.2-1.1-0.2c-0.9,0-1.7,0.2-2.4,0.5
						c-0.7,0.3-1.3,0.8-1.8,1.3c-0.5,0.6-0.9,1.2-1.2,2s-0.4,1.5-0.4,2.3s0.1,1.6,0.4,2.3s0.7,1.4,1.2,2c0.5,0.6,1.1,1,1.8,1.3
						s1.5,0.5,2.4,0.5c0.4,0,0.7,0,1.1-0.1c0.4-0.1,0.7-0.2,1.1-0.3c0.4-0.2,0.7-0.4,1-0.6s0.6-0.6,0.9-1L669.9,867.1z"/>
					<path fill="#58595B" d="M686.6,866.1l3.2,3.3h-2l-2-2.1c-0.6,0.8-1.2,1.4-1.9,1.8c-0.7,0.4-1.5,0.7-2.4,0.7
						c-0.6,0-1.1-0.1-1.7-0.3s-1-0.4-1.4-0.8c-0.4-0.3-0.7-0.8-1-1.3c-0.2-0.5-0.4-1.1-0.4-1.7c0-0.5,0.1-1,0.3-1.4
						c0.2-0.4,0.4-0.8,0.7-1.2s0.6-0.6,1-0.9s0.8-0.5,1.2-0.7c-0.4-0.5-0.8-1-1.2-1.5c-0.3-0.6-0.5-1.2-0.5-1.8c0-0.5,0.1-1,0.3-1.4
						c0.2-0.4,0.4-0.8,0.8-1.1c0.3-0.3,0.7-0.5,1.1-0.6c0.4-0.1,0.9-0.2,1.4-0.2c0.5,0,0.9,0.1,1.3,0.2c0.4,0.1,0.8,0.3,1.1,0.6
						s0.6,0.6,0.7,1c0.2,0.4,0.3,0.8,0.3,1.4c0,0.5-0.1,0.9-0.3,1.2c-0.2,0.4-0.4,0.7-0.7,1s-0.6,0.6-1,0.8
						c-0.4,0.2-0.7,0.4-1.1,0.6l3.3,3.4l1.9-3.4h1.6L686.6,866.1z M681.1,862.4c-0.5,0.3-0.9,0.5-1.2,0.8s-0.6,0.5-0.8,0.7
						c-0.2,0.3-0.3,0.5-0.4,0.8c-0.1,0.3-0.1,0.6-0.1,1c0,0.4,0.1,0.8,0.2,1.1c0.2,0.3,0.4,0.6,0.6,0.8s0.6,0.4,0.9,0.5
						c0.3,0.1,0.7,0.2,1.1,0.2s0.7-0.1,1-0.2c0.3-0.1,0.6-0.3,0.9-0.4s0.5-0.4,0.8-0.7c0.2-0.3,0.5-0.5,0.7-0.8L681.1,862.4z
						 M684,858c0-0.6-0.2-1-0.6-1.4c-0.4-0.3-0.8-0.5-1.4-0.5c-0.6,0-1.1,0.2-1.5,0.6c-0.4,0.4-0.6,0.9-0.6,1.5
						c0,0.2,0.1,0.5,0.2,0.8s0.2,0.5,0.4,0.7s0.3,0.4,0.5,0.6s0.3,0.3,0.4,0.4c0.3-0.2,0.6-0.3,0.9-0.5c0.3-0.2,0.6-0.4,0.8-0.6
						c0.3-0.2,0.5-0.5,0.6-0.7C684,858.7,684,858.4,684,858z"/>
					<path fill="#58595B" d="M653.5,891.4H652v-12.8h-4.7v-1.3h10.9v1.3h-4.7V891.4z"/>
					<path fill="#58595B" d="M658.8,891.4h-1.7l6.2-14.2h1.4l6.2,14.2h-1.7l-1.6-3.7h-7.2L658.8,891.4z M660.9,886.3h6.1l-3.1-7.4
						L660.9,886.3z"/>
					<path fill="#58595B" d="M679.5,879.6c-0.6-0.9-1.5-1.4-2.7-1.4c-0.4,0-0.7,0-1.1,0.2c-0.4,0.1-0.7,0.3-1,0.5s-0.5,0.5-0.7,0.8
						c-0.2,0.3-0.3,0.7-0.3,1.2c0,0.6,0.2,1.1,0.5,1.5c0.4,0.4,0.8,0.6,1.3,0.9c0.5,0.2,1.1,0.4,1.8,0.6c0.6,0.2,1.2,0.4,1.8,0.7
						c0.5,0.3,1,0.7,1.3,1.2c0.4,0.5,0.5,1.2,0.5,2c0,0.6-0.1,1.2-0.4,1.7c-0.3,0.5-0.6,0.9-1.1,1.3c-0.4,0.3-0.9,0.6-1.5,0.8
						c-0.6,0.2-1.1,0.3-1.7,0.3c-0.9,0-1.7-0.2-2.5-0.5c-0.8-0.3-1.4-0.9-2-1.6l1.3-0.9c0.3,0.5,0.7,0.9,1.3,1.2
						c0.5,0.3,1.2,0.5,1.9,0.5c0.4,0,0.7-0.1,1.1-0.2c0.4-0.1,0.7-0.3,1-0.5c0.3-0.2,0.5-0.5,0.7-0.8c0.2-0.3,0.3-0.7,0.3-1.1
						c0-0.5-0.1-0.9-0.3-1.2c-0.2-0.3-0.5-0.6-0.8-0.8s-0.7-0.4-1.2-0.5s-0.9-0.3-1.3-0.4s-0.9-0.3-1.3-0.5
						c-0.4-0.2-0.8-0.4-1.2-0.7c-0.3-0.3-0.6-0.6-0.8-1.1c-0.2-0.4-0.3-1-0.3-1.6c0-0.7,0.1-1.3,0.4-1.8c0.3-0.5,0.6-0.9,1-1.3
						s0.9-0.6,1.5-0.7c0.5-0.2,1.1-0.2,1.7-0.2c0.8,0,1.5,0.1,2.2,0.4c0.7,0.3,1.3,0.7,1.8,1.3L679.5,879.6z"/>
				</g>
			</g>
			<rect x="652.1" y="891.4" fill="none" width="12.4" height="23.5"/>
		</g>
		<g>
			<g>
				<g>
					<path fill="#58595B" d="M873.3,743.7L873.3,743.7l0-12h1.4v14.2H873l-8.4-12.1h0v12.1h-1.4v-14.2h1.8L873.3,743.7z"/>
					<path fill="#58595B" d="M885.3,734c-0.6-0.9-1.5-1.4-2.7-1.4c-0.4,0-0.7,0-1.1,0.2c-0.4,0.1-0.7,0.3-1,0.5
						c-0.3,0.2-0.5,0.5-0.7,0.8c-0.2,0.3-0.3,0.7-0.3,1.2c0,0.6,0.2,1.1,0.5,1.5c0.4,0.4,0.8,0.6,1.3,0.9c0.5,0.2,1.1,0.4,1.8,0.6
						c0.6,0.2,1.2,0.4,1.8,0.7s1,0.7,1.3,1.2c0.4,0.5,0.5,1.2,0.5,2c0,0.6-0.1,1.2-0.4,1.7s-0.6,0.9-1.1,1.3
						c-0.4,0.3-0.9,0.6-1.5,0.8c-0.6,0.2-1.1,0.3-1.7,0.3c-0.9,0-1.7-0.2-2.5-0.5c-0.8-0.3-1.4-0.9-2-1.6l1.3-0.9
						c0.3,0.5,0.7,0.9,1.3,1.2s1.2,0.5,1.9,0.5c0.4,0,0.7-0.1,1.1-0.2c0.4-0.1,0.7-0.3,1-0.5c0.3-0.2,0.5-0.5,0.7-0.8
						c0.2-0.3,0.3-0.7,0.3-1.1c0-0.5-0.1-0.9-0.3-1.2c-0.2-0.3-0.5-0.6-0.8-0.8c-0.3-0.2-0.7-0.4-1.2-0.5c-0.4-0.1-0.9-0.3-1.3-0.4
						s-0.9-0.3-1.3-0.5c-0.4-0.2-0.8-0.4-1.2-0.7c-0.3-0.3-0.6-0.6-0.8-1.1c-0.2-0.4-0.3-1-0.3-1.6c0-0.7,0.1-1.3,0.4-1.8
						c0.3-0.5,0.6-0.9,1-1.3c0.4-0.3,0.9-0.6,1.5-0.7s1.1-0.2,1.7-0.2c0.8,0,1.5,0.1,2.2,0.4c0.7,0.3,1.3,0.7,1.8,1.3L885.3,734z"/>
					<path fill="#58595B" d="M892.8,743.8L892.8,743.8l3.6-12.1h1.7l3.6,12.1h0l3.4-12.1h1.6l-4.2,14.2h-1.7l-3.6-12.1h0l-3.6,12.1
						H892l-4.2-14.2h1.6L892.8,743.8z"/>
					<path fill="#58595B" d="M922.9,742.6l3.2,3.3h-2l-2-2.1c-0.6,0.8-1.2,1.4-1.9,1.8c-0.7,0.4-1.5,0.7-2.4,0.7
						c-0.6,0-1.2-0.1-1.7-0.3s-1-0.4-1.4-0.8c-0.4-0.3-0.7-0.8-1-1.3s-0.4-1.1-0.4-1.7c0-0.5,0.1-1,0.3-1.4c0.2-0.4,0.4-0.8,0.7-1.2
						c0.3-0.3,0.6-0.6,1-0.9s0.8-0.5,1.2-0.7c-0.4-0.5-0.8-1-1.2-1.5c-0.3-0.6-0.5-1.2-0.5-1.8c0-0.5,0.1-1,0.3-1.4
						c0.2-0.4,0.4-0.8,0.8-1.1c0.3-0.3,0.7-0.5,1.1-0.6s0.9-0.2,1.4-0.2c0.5,0,0.9,0.1,1.3,0.2c0.4,0.1,0.8,0.3,1.1,0.6
						c0.3,0.3,0.6,0.6,0.7,1c0.2,0.4,0.3,0.8,0.3,1.4c0,0.5-0.1,0.9-0.3,1.2s-0.4,0.7-0.7,1c-0.3,0.3-0.6,0.6-1,0.8
						s-0.7,0.4-1.1,0.6l3.3,3.4l1.9-3.4h1.6L922.9,742.6z M917.4,738.9c-0.5,0.3-0.9,0.5-1.2,0.8c-0.3,0.2-0.6,0.5-0.8,0.7
						c-0.2,0.3-0.3,0.5-0.4,0.8c-0.1,0.3-0.1,0.6-0.1,1c0,0.4,0.1,0.8,0.2,1.1c0.2,0.3,0.4,0.6,0.6,0.8s0.6,0.4,0.9,0.5
						c0.3,0.1,0.7,0.2,1.1,0.2s0.7-0.1,1.1-0.2c0.3-0.1,0.6-0.3,0.9-0.4c0.3-0.2,0.5-0.4,0.8-0.7s0.5-0.5,0.7-0.8L917.4,738.9z
						 M920.3,734.5c0-0.6-0.2-1-0.6-1.4c-0.4-0.3-0.8-0.5-1.4-0.5c-0.6,0-1.1,0.2-1.5,0.6c-0.4,0.4-0.6,0.9-0.6,1.5
						c0,0.2,0.1,0.5,0.2,0.8s0.2,0.5,0.4,0.7s0.3,0.4,0.5,0.6c0.2,0.2,0.3,0.3,0.4,0.4c0.3-0.2,0.6-0.3,0.9-0.5
						c0.3-0.2,0.6-0.4,0.9-0.6c0.3-0.2,0.5-0.5,0.6-0.7S920.3,734.9,920.3,734.5z"/>
					<path fill="#58595B" d="M875.8,767.8h-1.7l6.2-14.2h1.4l6.2,14.2h-1.7l-1.6-3.7h-7.2L875.8,767.8z M877.9,762.8h6.1l-3.1-7.4
						L877.9,762.8z"/>
					<path fill="#58595B" d="M901.4,765.6c-0.2,0.4-0.5,0.7-0.9,1c-0.4,0.3-0.8,0.6-1.2,0.8s-0.9,0.4-1.5,0.5
						c-0.5,0.1-1.1,0.2-1.7,0.2c-1.1,0-2-0.2-2.9-0.6c-0.9-0.4-1.7-0.9-2.3-1.5c-0.7-0.7-1.2-1.4-1.5-2.3c-0.4-0.9-0.6-1.9-0.6-3
						s0.2-2.1,0.6-3c0.4-0.9,0.9-1.7,1.5-2.4c0.7-0.7,1.4-1.2,2.3-1.5c0.9-0.4,1.9-0.6,2.9-0.6c0.9,0,1.8,0.2,2.6,0.5
						s1.6,0.9,2.3,1.7l-1.3,0.9c-0.1-0.2-0.3-0.5-0.6-0.7c-0.3-0.2-0.5-0.4-0.9-0.6c-0.3-0.2-0.7-0.3-1-0.4
						c-0.4-0.1-0.7-0.2-1.1-0.2c-0.9,0-1.7,0.2-2.4,0.5c-0.7,0.3-1.3,0.8-1.8,1.3c-0.5,0.6-0.9,1.2-1.1,2s-0.4,1.5-0.4,2.3
						s0.1,1.6,0.4,2.3s0.6,1.4,1.1,2c0.5,0.6,1.1,1,1.8,1.3c0.7,0.3,1.5,0.5,2.4,0.5c0.4,0,0.7,0,1.1-0.1c0.4-0.1,0.7-0.2,1.1-0.3
						c0.4-0.2,0.7-0.4,1-0.6c0.3-0.3,0.6-0.6,0.9-1L901.4,765.6z"/>
					<path fill="#58595B" d="M908.4,767.8h-1.4V755h-4.7v-1.3h10.9v1.3h-4.7V767.8z"/>
				</g>
			</g>
			<rect x="881.4" y="767.2" fill="none" width="12.4" height="23.5"/>
		</g>
		<g>
			<g>
				<g>
					<path fill="#58595B" d="M880,444.3h-8.1c-1,0-2-0.2-2.9-0.5c-0.9-0.4-1.6-0.9-2.3-1.5c-0.6-0.6-1.1-1.4-1.5-2.3
						c-0.4-0.9-0.5-1.9-0.5-2.9c0-1.1,0.2-2,0.5-2.9c0.4-0.9,0.9-1.7,1.5-2.3c0.6-0.6,1.4-1.2,2.3-1.5c0.9-0.4,1.8-0.5,2.9-0.5
						c1,0,2,0.2,2.8,0.5c0.9,0.4,1.6,0.9,2.3,1.5c0.6,0.6,1.1,1.4,1.5,2.3c0.4,0.9,0.5,1.9,0.5,2.9c0,1.3-0.3,2.4-0.8,3.5
						c-0.5,1-1.4,1.8-2.5,2.4v0h4.3V444.3z M866.3,437c0,0.8,0.1,1.5,0.4,2.2s0.6,1.3,1.1,1.9c0.5,0.5,1.1,1,1.8,1.3
						c0.7,0.3,1.5,0.5,2.4,0.5c0.9,0,1.6-0.2,2.3-0.5c0.7-0.3,1.3-0.8,1.8-1.3s0.8-1.2,1.1-1.9s0.4-1.5,0.4-2.2s-0.1-1.5-0.4-2.2
						s-0.6-1.3-1.1-1.9c-0.5-0.5-1.1-1-1.8-1.3c-0.7-0.3-1.5-0.5-2.3-0.5c-0.9,0-1.7,0.2-2.4,0.5c-0.7,0.3-1.3,0.8-1.8,1.3
						c-0.5,0.5-0.8,1.2-1.1,1.9S866.3,436.2,866.3,437z"/>
					<path fill="#58595B" d="M883.9,443h6.6v1.3h-8v-14.2h1.4V443z"/>
					<path fill="#58595B" d="M892.2,430.1h4.7c0.9,0,1.8,0.1,2.6,0.4s1.7,0.7,2.4,1.3c0.7,0.6,1.3,1.3,1.7,2.2
						c0.4,0.9,0.7,1.9,0.7,3.1c0,1.2-0.2,2.2-0.7,3.1c-0.4,0.9-1,1.6-1.7,2.2c-0.7,0.6-1.5,1-2.4,1.3c-0.9,0.3-1.8,0.4-2.6,0.4h-4.7
						V430.1z M893.7,443h2.8c1.1,0,2-0.2,2.8-0.5c0.8-0.3,1.5-0.8,2-1.3s0.9-1.2,1.2-1.8c0.3-0.7,0.4-1.4,0.4-2.1s-0.1-1.4-0.4-2.1
						s-0.6-1.3-1.2-1.8s-1.2-1-2-1.3c-0.8-0.3-1.7-0.5-2.8-0.5h-2.8V443z"/>
				</g>
			</g>
			<rect x="872.2" y="444.3" fill="none" width="12.4" height="23.5"/>
		</g>
		<g>
			<g>
				<g>
					<path fill="#58595B" d="M484.8,217.7L484.8,217.7l0-12h1.4v14.2h-1.8l-8.4-12.1h0v12.1h-1.4v-14.2h1.8L484.8,217.7z"/>
					<path fill="#58595B" d="M494.7,219.9h-1.4V207h-4.7v-1.3h10.9v1.3h-4.7V219.9z"/>
				</g>
			</g>
			<rect x="473.8" y="219.9" fill="none" width="12.4" height="23.5"/>
		</g>
	</g>
</g>
<g id="Layer_2" display="none">
	<g display="inline">
		<text transform="matrix(1 0 0 1 398.3491 160.5889)" fill="#58595B" font-family="'AvenirLT-Black'" font-size="98.8804">100</text>
	</g>
	<g display="inline">
		<text transform="matrix(1 0 0 1 796.7677 385.0254)" fill="#58595B" font-family="'AvenirLT-Black'" font-size="98.8804">100</text>
	</g>
	<g display="inline">
		<text transform="matrix(1 0 0 1 805.9514 707.9023)" fill="#58595B" font-family="'AvenirLT-Black'" font-size="98.8804">100</text>
	</g>
	<g display="inline">
		<text transform="matrix(1 0 0 1 576.6707 832.1078)" fill="#58595B" font-family="'AvenirLT-Black'" font-size="98.8804">100</text>
	</g>
	<g display="inline">
		<text transform="matrix(1 0 0 1 298.5158 702.5305)" fill="#58595B" font-family="'AvenirLT-Black'" font-size="98.8804">100</text>
	</g>
	<g display="inline">
		<text transform="matrix(1 0 0 1 25.109 572.7332)" fill="#58595B" font-family="'AvenirLT-Black'" font-size="98.8804">100</text>
	</g>
</g>
</svg>
