<?xml version="1.0" encoding="utf-8"?>
<!-- Generator: Adobe Illustrator 18.0.0, SVG Export Plug-In . SVG Version: 6.00 Build 0)  -->
<!DOCTYPE svg PUBLIC "-//W3C//DTD SVG 1.1//EN" "http://www.w3.org/Graphics/SVG/1.1/DTD/svg11.dtd">
<svg version="1.1" id="Layer_2" xmlns="http://www.w3.org/2000/svg" xmlns:xlink="http://www.w3.org/1999/xlink" x="0px" y="0px"
	 viewBox="0 0 313.3 250" enable-background="new 0 0 313.3 250" xml:space="preserve">
<g>
	<g>
		<path fill="#FFFFFF" d="M86.1,184.1h-6.2v-18.5h-5.1v-5.2h16.4v5.2h-5.1V184.1z"/>
		<path fill="#FFFFFF" d="M134.2,171.8c0,7.7-5.5,13.1-13.1,13.1s-13.1-5.4-13.1-13.1c0-7.2,6.3-12.2,13.1-12.2
			C127.9,159.6,134.2,164.6,134.2,171.8z M114.3,171.9c0,4.1,3,7.1,6.7,7.1c3.7,0,6.7-3,6.7-7.1c0-3.3-3-6.3-6.7-6.3
			C117.4,165.6,114.3,168.6,114.3,171.9z"/>
		<path fill="#FFFFFF" d="M162.1,184.1H156v-18.5h-5.1v-5.2h16.4v5.2h-5.1V184.1z"/>
		<path fill="#FFFFFF" d="M189.3,180l-1.6,4.1h-6.6l9.1-23.7h6.7l8.9,23.7h-6.6l-1.5-4.1H189.3z M193.6,167.7L193.6,167.7l-2.6,7.6
			h5.1L193.6,167.7z"/>
		<path fill="#FFFFFF" d="M229.7,178.9h7.4v5.2h-13.6v-23.7h6.2V178.9z"/>
		<path fill="#FFFFFF" d="M45.3,207.8c-1.1-0.9-2.6-1.6-4.1-1.6c-1.1,0-2.6,0.7-2.6,2c0,1.4,1.7,1.9,2.7,2.3l1.6,0.5
			c3.3,1,5.9,2.6,5.9,6.5c0,2.4-0.6,4.8-2.5,6.4c-1.9,1.6-4.3,2.2-6.7,2.2c-3,0-5.9-1-8.3-2.7l2.6-5c1.5,1.4,3.4,2.5,5.5,2.5
			c1.4,0,3-0.7,3-2.4c0-1.7-2.4-2.3-3.7-2.7c-3.9-1.1-6.4-2.1-6.4-6.7c0-4.8,3.4-8,8.2-8c2.4,0,5.3,0.8,7.4,2L45.3,207.8z"/>
		<path fill="#FFFFFF" d="M64.7,201.7h7.4l4.4,6.5l4.4-6.5h7.4L79.6,214v11.4h-6.2V214L64.7,201.7z"/>
		<path fill="#FFFFFF" d="M105.4,201.7h6.2l11.3,14.5h0.1v-14.5h6.2v23.8H123l-11.3-14.6h-0.1v14.6h-6.2V201.7z"/>
		<path fill="#FFFFFF" d="M155,206.9v4h7v5.2h-7v4.1h7.3v5.2h-13.5v-23.8h13.5v5.2H155z"/>
		<path fill="#FFFFFF" d="M201.5,225.4h-7.7l-5.8-9.1H188v9.1h-6.2v-23.8h9.2c4.7,0,8.3,2.2,8.3,7.3c0,3.3-1.8,6.1-5.2,6.7
			L201.5,225.4z M188,212.3h0.6c2,0,4.3-0.4,4.3-3c0-2.6-2.3-3-4.3-3H188V212.3z"/>
		<path fill="#FFFFFF" d="M242.6,212.2c-0.1,3.5-0.3,6.4-2.4,9.4c-2.3,3.2-5.8,4.7-9.8,4.7c-7.5,0-12.7-5.1-12.7-12.5
			c0-7.7,5.2-12.8,12.9-12.8c4.9,0,8.7,2.2,10.7,6.6l-5.9,2.5c-0.8-2.3-2.6-3.8-5.1-3.8c-4.1,0-6.2,3.9-6.2,7.5
			c0,3.7,2.2,7.4,6.3,7.4c2.7,0,4.7-1.4,5-4.1h-5v-4.8H242.6z"/>
		<path fill="#FFFFFF" d="M258.4,201.7h7.4l4.4,6.5l4.4-6.5h7.4l-8.8,12.3v11.4h-6.2V214L258.4,201.7z"/>
	</g>
</g>
<g>
	<path fill="#FFFFFF" d="M43.7,103.8c-5.9-7.4-9.5-16.9-9.5-27.1c0-24,19.5-43.5,43.5-43.5c5.3,0,10.4,1,15.2,2.7
		c0.5-0.9,1.1-1.7,1.7-2.5c-7.5-6-17-9.6-27.3-9.6c-24,0-43.5,19.5-43.5,43.5C23.7,82.6,31.7,96.1,43.7,103.8z"/>
	<path fill="#FFFFFF" d="M110.7,67.2c0-7.6-2-14.8-5.4-21c-3.4,6.2-5.4,13.4-5.4,21c0,7.6,2,14.8,5.4,21
		C108.8,82,110.7,74.9,110.7,67.2z"/>
	<path fill="#FFFFFF" d="M137.2,76.7c0-12.6-3.9-24.2-10.6-33.9c7.5-6,17-9.6,27.3-9.6c5.3,0,10.4,1,15.2,2.7
		c0.5-0.9,1.1-1.7,1.7-2.5c-7.5-6-17-9.6-27.3-9.6s-19.8,3.6-27.3,9.6c6.7,9.6,10.6,21.3,10.6,33.9s-3.9,24.2-10.6,33.9
		c3.6,2.9,7.7,5.3,12.1,6.9C133.9,98.9,137.2,88.2,137.2,76.7z"/>
	<path fill="#FFFFFF" d="M264.4,28.2c9.1,10.5,14.7,24.1,14.7,39.1c0,32.8-26.7,59.5-59.5,59.5c-14.5,0-27.8-5.2-38.1-13.8
		c-10.3,8.6-23.6,13.8-38.1,13.8s-27.8-5.2-38.1-13.8c-10.3,8.6-23.6,13.8-38.1,13.8c-12.8,0-24.6-4.1-34.4-11
		c10.9,12.5,26.9,20.4,44.8,20.4c14.5,0,27.8-5.2,38.1-13.8c10.3,8.6,23.6,13.8,38.1,13.8c14.5,0,27.8-5.2,38.1-13.8
		c10.3,8.6,23.6,13.8,38.1,13.8c32.8,0,59.5-26.7,59.5-59.5C289.5,56.7,279.6,39,264.4,28.2z"/>
	<path fill="#FFFFFF" d="M213.4,76.7c0-12.6-3.9-24.2-10.6-33.9c7.5-6,17-9.6,27.3-9.6c8.7,0,16.8,2.6,23.5,6.9
		c-8-10-20.2-16.4-34-16.4c-10.3,0-19.8,3.6-27.3,9.6c6.7,9.6,10.6,21.3,10.6,33.9s-3.9,24.2-10.6,33.9c3.6,2.9,7.7,5.3,12.1,6.9
		C210.1,98.9,213.4,88.2,213.4,76.7z"/>
	<path fill="#FFFFFF" d="M186.9,67.2c0-7.6-2-14.8-5.4-21c-3.4,6.2-5.4,13.4-5.4,21c0,7.6,2,14.8,5.4,21
		C184.9,82,186.9,74.9,186.9,67.2z"/>
</g>
</svg>
